<?xml version="1.0" encoding="UTF-8"?>
<svg id="Layer_2" data-name="Layer 2" xmlns="http://www.w3.org/2000/svg" version="1.1" viewBox="0 0 772.2 283.8">
  <defs>
    <style>
      .cls-1, .cls-2, .cls-3, .cls-4, .cls-5 {
        stroke-miterlimit: 10;
        stroke-width: 3px;
      }

      .cls-1, .cls-3, .cls-5 {
        stroke: #939598;
      }

      .cls-1, .cls-6 {
        fill: #fff;
      }

      .cls-7 {
        fill: #6d6e71;
      }

      .cls-7, .cls-8, .cls-9, .cls-10, .cls-11, .cls-12, .cls-6, .cls-13 {
        stroke-width: 0px;
      }

      .cls-2 {
        stroke: #bcbec0;
      }

      .cls-2, .cls-3, .cls-4, .cls-5 {
        fill: none;
      }

      .cls-8 {
        fill: #58595b;
      }

      .cls-9 {
        fill: #bcbec0;
      }

      .cls-10 {
        fill: #2ba198;
      }

      .cls-11, .cls-14 {
        fill: #000;
      }

      .cls-14 {
        font-family: MyriadPro-Regular, 'Myriad Pro';
        font-size: 11px;
      }

      .cls-3 {
        stroke-dasharray: 0 0 0 0 0 0 0 0 0 0 0 0;
        stroke-linecap: round;
      }

      .cls-4 {
        stroke: #6d6e71;
      }

      .cls-12 {
        fill: #e6e7e8;
      }

      .cls-13 {
        fill: #231f20;
      }
    </style>
  </defs>
  <g id="Layer_1-2" data-name="Layer 1-2">
    <line class="cls-4" x1="255.4" y1="205.7" x2="255.4" y2="193.1"/>
    <polygon class="cls-7" points="259.9 194.4 255.4 186.7 250.9 194.4 259.9 194.4"/>
    <line class="cls-4" x1="255.4" y1="119" x2="255.4" y2="131.6"/>
    <polygon class="cls-7" points="250.9 130.2 255.4 138 259.9 130.2 250.9 130.2"/>
    <path class="cls-2" d="M642.6,235.5v24.1c0,7.1-5.7,12.8-12.8,12.8H74.6c-6.8,0-12.3-5.5-12.3-12.3v-30.8"/>
    <polygon class="cls-9" points="66.8 230.6 62.3 222.8 57.8 230.6 66.8 230.6"/>
    <line class="cls-2" x1="292.2" y1="230.4" x2="395.1" y2="230.4"/>
    <polygon class="cls-9" points="394.3 224.9 394.3 235.8 399.8 230.4 394.3 224.9"/>
    <line class="cls-2" x1="485.9" y1="213.4" x2="595.1" y2="213.4"/>
    <polygon class="cls-9" points="594.4 207.9 594.4 218.8 599.8 213.4 594.4 207.9"/>
    <path class="cls-2" d="M102.5,146.2h44.4c7.6,0,13.8,6.2,13.8,13.8v59.7c0,7.3,5.9,13.3,13.3,13.3h32.5"/>
    <polygon class="cls-9" points="205.1 237.4 212.9 232.9 205.1 228.4 205.1 237.4"/>
    <line class="cls-2" x1="98.9" y1="94.7" x2="208.1" y2="94.7"/>
    <polygon class="cls-9" points="207.4 89.2 207.4 100.2 212.9 94.7 207.4 89.2"/>
    <line class="cls-2" x1="290.5" y1="94.7" x2="393.4" y2="94.7"/>
    <polygon class="cls-9" points="392.7 89.2 392.7 100.2 398.2 94.7 392.7 89.2"/>
    <line class="cls-4" x1="402.7" y1="163.2" x2="299.8" y2="163.2"/>
    <polygon class="cls-7" points="300.5 168.6 300.5 157.7 295 163.2 300.5 168.6"/>
    <line class="cls-2" x1="102.5" y1="34.9" x2="395.2" y2="34.9"/>
    <polygon class="cls-9" points="394.5 29.5 394.5 40.4 399.9 34.9 394.5 29.5"/>
    <rect class="cls-3" x="13.7" y="1.5" width="97.2" height="231.4" rx="12.3" ry="12.3"/>
    <rect class="cls-5" x="22.1" y="176.8" width="80.4" height="48.7" rx="12.4" ry="12.4"/>
    <rect class="cls-5" x="22.1" y="12" width="80.4" height="48.7" rx="12.4" ry="12.4"/>
    <rect class="cls-1" x="22.1" y="66.8" width="80.4" height="48.7" rx="12.4" ry="12.4"/>
    <rect class="cls-5" x="22.1" y="121.8" width="80.4" height="48.7" rx="12.4" ry="12.4"/>
    <path class="cls-13" d="M6.3,137.2c.3-.5.5-1.2.5-2s-.3-1.3-.9-1.3-.8.4-1.1,1.4c-.5,1.4-1.2,2.2-2.4,2.2S0,136.3,0,134.4s.2-1.6.4-2.1l1.5.4c-.1.3-.4.9-.4,1.7s.4,1.2.8,1.2.7-.4,1.1-1.5c.5-1.4,1.3-2.1,2.4-2.1s2.5,1,2.5,3.3-.2,1.8-.5,2.3l-1.5-.4s0,0,0,0Z"/>
    <path class="cls-13" d="M5.2,125c2.2,0,3.1,1.5,3.1,3.1s-1.1,3-3,3-3.1-1.2-3.1-3.1,1.2-3,3-3h0ZM5.3,129.2c1,0,1.8-.4,1.8-1.2s-.7-1.2-1.8-1.2-1.8.3-1.8,1.2.9,1.2,1.8,1.2Z"/>
    <path class="cls-13" d="M6.3,118.3c.8,0,1.4,0,1.9,0v1.6h-.8c.4.4,1,.9,1,2s-.8,2.1-2.6,2.1h-3.5v-1.8h3.1c.9,0,1.4-.3,1.4-.9s-.3-.8-.6-.9c-.1,0-.2,0-.4,0h-3.5v-1.8h4s0,0,0,0Z"/>
    <path class="cls-13" d="M4.3,116.9c-.9,0-1.4,0-1.9,0v-1.6h1.1c-.9-.4-1.2-1.1-1.2-1.7s0-.2,0-.4h1.7c0,.1,0,.3,0,.5,0,.7.4,1.1.9,1.2.1,0,.3,0,.4,0h3v1.8h-4Z"/>
    <path class="cls-13" d="M8.1,108c.1.3.3.9.3,1.6,0,1.9-1.2,3.1-3,3.1s-3.1-1.2-3.1-3.4,0-1,.2-1.4l1.4.3c0,.2-.2.5-.2,1,0,1,.7,1.6,1.7,1.6s1.7-.7,1.7-1.6,0-.8-.2-1.1l1.4-.2h0Z"/>
    <path class="cls-13" d="M5.9,105.7c.8,0,1.1-.8,1.1-1.7s0-1.1-.2-1.6l1.2-.2c.2.6.4,1.3.4,2.1,0,2-1.2,3.1-3,3.1s-3.1-.9-3.1-3,1.5-2.6,2.9-2.6.6,0,.7,0v3.8h0ZM4.6,103.6c-.4,0-1.2.2-1.2,1s.7,1.1,1.2,1.1v-2.2h0Z"/>
    <path class="cls-13" d="M6.6,100.8c.2-.3.4-1,.4-1.6s-.2-.8-.5-.8-.4.2-.7.9c-.4,1.2-1.1,1.7-1.8,1.7-1.1,0-1.9-.9-1.9-2.4s.2-1.3.3-1.7l1.3.3c-.1.3-.3.8-.3,1.3s.2.7.5.7.4-.2.7-.9c.4-1.1.9-1.6,1.8-1.6,1.1,0,1.9.8,1.9,2.5s-.2,1.4-.4,1.9l-1.3-.3h0Z"/>
    <path class="cls-13" d="M39.7,31.4v-.5l.7-.7c1.7-1.6,2.4-2.4,2.4-3.4,0-.7-.3-1.3-1.3-1.3s-1.1.3-1.4.5l-.3-.6c.4-.4,1.1-.7,1.8-.7,1.4,0,2,1,2,1.9s-.9,2.2-2.2,3.5l-.5.5h0s2.9,0,2.9,0v.7h-4.2,0Z"/>
    <path class="cls-13" d="M49.2,28.1c0,2.2-.8,3.4-2.3,3.4s-2.1-1.2-2.2-3.3c0-2.2.9-3.4,2.3-3.4s2.2,1.2,2.2,3.3ZM45.6,28.2c0,1.7.5,2.6,1.3,2.6s1.3-1,1.3-2.7-.4-2.6-1.3-2.6-1.3.9-1.3,2.7h0Z"/>
    <path class="cls-13" d="M51.9,25.8h0l-1.1.6-.2-.7,1.4-.8h.8v6.5h-.8v-5.7Z"/>
    <path class="cls-13" d="M58.8,25.5c-.2,0-.4,0-.7,0-1.4.2-2.1,1.2-2.2,2.3h0c.3-.4.8-.8,1.6-.8,1.2,0,2,.8,2,2.1s-.8,2.3-2.2,2.3-2.3-1.1-2.3-2.8.5-2.3,1.1-2.9c.5-.5,1.3-.9,2.1-1,.3,0,.5,0,.6,0v.7s0,0,0,0ZM58.5,29.3c0-.9-.5-1.5-1.3-1.5s-1,.3-1.3.8c0,.1,0,.2,0,.4,0,1.1.5,1.9,1.4,1.9s1.3-.6,1.3-1.6Z"/>
    <path class="cls-13" d="M64.5,28.6v.6h-4.4v-.6h4.4Z"/>
    <path class="cls-13" d="M65.2,31.4v-.5l.7-.7c1.7-1.6,2.4-2.4,2.4-3.4,0-.7-.3-1.3-1.3-1.3s-1.1.3-1.4.5l-.3-.6c.4-.4,1.1-.7,1.8-.7,1.4,0,2,1,2,1.9s-.9,2.2-2.2,3.5l-.5.5h0s2.9,0,2.9,0v.7h-4.2Z"/>
    <path class="cls-13" d="M74.7,28.1c0,2.2-.8,3.4-2.3,3.4s-2.1-1.2-2.2-3.3c0-2.2.9-3.4,2.3-3.4s2.2,1.2,2.2,3.3ZM71.1,28.2c0,1.7.5,2.6,1.3,2.6s1.3-1,1.3-2.7-.4-2.6-1.3-2.6-1.3.9-1.3,2.7h0Z"/>
    <path class="cls-13" d="M75.5,31.4v-.5l.7-.7c1.7-1.6,2.4-2.4,2.4-3.4,0-.7-.3-1.3-1.3-1.3s-1.1.3-1.4.5l-.3-.6c.4-.4,1.1-.7,1.8-.7,1.4,0,2,1,2,1.9s-.9,2.2-2.2,3.5l-.5.5h0s2.9,0,2.9,0v.7h-4.2Z"/>
    <path class="cls-13" d="M36.5,43.1c-.4.2-1.2.4-2.1.4s-1.9-.3-2.5-.9c-.6-.6-.9-1.5-.9-2.5,0-2,1.4-3.5,3.6-3.5s1.4.2,1.7.3l-.2.7c-.4-.2-.8-.3-1.5-.3-1.6,0-2.7,1-2.7,2.7s1,2.7,2.6,2.7,1,0,1.2-.2v-2h-1.4v-.7h2.2v3.2h0Z"/>
    <path class="cls-13" d="M37.8,40.1c0-.6,0-1.1,0-1.5h.8v1h0c.2-.7.8-1.1,1.3-1.1s.2,0,.2,0v.8c0,0-.2,0-.3,0-.6,0-1.1.5-1.2,1.1,0,.1,0,.3,0,.4v2.6h-.9v-3.3h0Z"/>
    <path class="cls-13" d="M43.7,43.4v-.6h-.1c-.3.4-.8.7-1.5.7-1,0-1.5-.7-1.5-1.4,0-1.2,1-1.8,2.9-1.8h0c0-.5-.1-1.2-1.1-1.2-.5,0-.9.1-1.3.4l-.2-.6c.4-.3,1-.4,1.6-.4,1.5,0,1.8,1,1.8,2v1.8c0,.4,0,.8,0,1.2h-.8s0,0,0,0ZM43.6,41c-1,0-2,.2-2,1.1s.4.8.8.8c.6,0,1-.4,1.2-.8,0,0,0-.2,0-.3v-.8h0Z"/>
    <path class="cls-13" d="M45.8,40.2c0-.6,0-1.1,0-1.6h.8v.8h0c.3-.6.9-.9,1.7-.9,1.2,0,2,1,2,2.5s-1.1,2.6-2.2,2.6-1.2-.3-1.5-.8h0v2.6h-.9v-5.2h0ZM46.7,41.5c0,.1,0,.2,0,.4.2.6.7,1,1.3,1,.9,0,1.5-.8,1.5-1.9s-.5-1.8-1.4-1.8-1.2.4-1.3,1.1c0,.1,0,.2,0,.4v.8h0Z"/>
    <path class="cls-13" d="M51.5,36.3h.9v3h0c.2-.2.4-.5.6-.6.3-.2.6-.2.9-.2.7,0,1.7.4,1.7,2.1v2.9h-.9v-2.8c0-.8-.3-1.4-1.1-1.4s-1,.4-1.2.9c0,.1,0,.3,0,.4v2.9h-.9v-7.1h0Z"/>
    <path class="cls-13" d="M59.2,36.8c.5,0,1.2-.2,1.8-.2,1.2,0,2.1.3,2.7.8.6.5,1,1.3,1,2.4s-.3,2-1,2.6c-.6.6-1.7,1-3,1s-1.1,0-1.6,0v-6.6h0ZM60.1,42.8c.2,0,.5,0,.9,0,1.9,0,2.9-1,2.9-2.9,0-1.6-.9-2.6-2.7-2.6s-.8,0-1,0v5.3h0Z"/>
    <path class="cls-13" d="M65.9,40.1c0-.6,0-1.1,0-1.5h.8v1h0c.2-.7.8-1.1,1.3-1.1s.2,0,.2,0v.8c0,0-.2,0-.3,0-.6,0-1.1.5-1.2,1.1,0,.1,0,.3,0,.4v2.6h-.9v-3.3h0Z"/>
    <path class="cls-13" d="M71.8,43.4v-.6h-.1c-.3.4-.8.7-1.5.7-1,0-1.5-.7-1.5-1.4,0-1.2,1-1.8,2.9-1.8h0c0-.5-.1-1.2-1.1-1.2-.4,0-.9.1-1.3.4l-.2-.6c.4-.3,1-.4,1.6-.4,1.5,0,1.8,1,1.8,2v1.8c0,.4,0,.8,0,1.2h-.8s0,0,0,0ZM71.6,41c-.9,0-2,.2-2,1.1s.4.8.8.8c.6,0,1-.4,1.2-.8,0,0,0-.2,0-.3v-.8h0Z"/>
    <path class="cls-13" d="M74.2,38.6l.7,2.5c.1.5.3,1,.4,1.5h0c.1-.5.3-1,.4-1.5l.8-2.5h.7l.8,2.4c.2.6.3,1.1.4,1.6h0c0-.5.2-1,.4-1.6l.7-2.4h.9l-1.6,4.8h-.8l-.7-2.3c-.2-.5-.3-1-.4-1.6h0c-.1.6-.3,1.1-.4,1.6l-.8,2.3h-.8l-1.5-4.8s.9,0,.9,0Z"/>
    <path class="cls-13" d="M82.2,37.2c0,.3-.2.5-.6.5s-.5-.2-.5-.5.2-.5.6-.5.5.2.5.5ZM81.2,43.4v-4.8h.9v4.8h-.9Z"/>
    <path class="cls-13" d="M83.5,39.9c0-.5,0-.9,0-1.3h.8v.8h0c.2-.5.8-.9,1.6-.9s1.7.4,1.7,2.1v2.9h-.9v-2.8c0-.8-.3-1.4-1.1-1.4s-1,.4-1.2.9c0,.1,0,.3,0,.4v2.9h-.9v-3.5s0,0,0,0Z"/>
    <path class="cls-13" d="M93.3,38.6c0,.3,0,.7,0,1.3v2.8c0,1.1-.2,1.8-.7,2.2-.5.4-1.2.6-1.8.6s-1.2-.1-1.6-.4l.2-.7c.3.2.8.4,1.4.4.9,0,1.6-.5,1.6-1.7v-.5h0c-.3.5-.8.8-1.5.8-1.2,0-2.1-1-2.1-2.4s1.1-2.6,2.2-2.6,1.3.4,1.5.8h0v-.7h.8,0ZM92.3,40.5c0-.1,0-.3,0-.4-.2-.5-.6-.9-1.2-.9s-1.4.7-1.4,1.8.5,1.7,1.4,1.7,1-.3,1.2-.9c0-.1,0-.3,0-.5v-.9h0Z"/>
    <path class="cls-13" d="M32,86.6l-.7,2.1h-.9l2.3-6.7h1l2.3,6.7h-.9l-.7-2.1s-2.4,0-2.4,0ZM34.2,85.9l-.7-1.9c-.2-.4-.2-.8-.3-1.2h0c0,.4-.2.8-.3,1.2l-.7,1.9h2s0,0,0,0Z"/>
    <path class="cls-13" d="M37,81.6h.9v7.1h-.9v-7.1Z"/>
    <path class="cls-13" d="M39.3,81.6h.9v7.1h-.9v-7.1Z"/>
    <path class="cls-13" d="M43.8,85.5c0-.6,0-1.1,0-1.6h.8v.8h0c.3-.6.9-.9,1.7-.9,1.2,0,2,1,2,2.4s-1.1,2.6-2.2,2.6-1.2-.3-1.5-.8h0v2.6h-.9v-5.2h0ZM44.7,86.8c0,.1,0,.2,0,.4.2.6.7,1,1.3,1,.9,0,1.5-.8,1.5-1.9s-.5-1.8-1.4-1.8-1.2.4-1.3,1.1c0,.1,0,.2,0,.4v.8h0Z"/>
    <path class="cls-13" d="M52.2,88.7v-.6h-.1c-.3.4-.8.7-1.5.7-1,0-1.5-.7-1.5-1.4,0-1.2,1-1.8,2.9-1.8h0c0-.5-.1-1.2-1.1-1.2-.5,0-.9.1-1.3.4l-.2-.6c.4-.3,1-.4,1.6-.4,1.5,0,1.8,1,1.8,2v1.8c0,.4,0,.8,0,1.2h-.8s0,0,0,0ZM52,86.3c-1,0-2,.2-2,1.1s.4.8.8.8c.6,0,1-.4,1.2-.8,0,0,0-.2,0-.3v-.8h0Z"/>
    <path class="cls-13" d="M54.3,85.5c0-.6,0-1.1,0-1.6h.8v.8h0c.3-.6.9-.9,1.7-.9,1.2,0,2,1,2,2.4s-1.1,2.6-2.2,2.6-1.2-.3-1.5-.8h0v2.6h-.9v-5.2h0ZM55.2,86.8c0,.1,0,.2,0,.4.2.6.7,1,1.3,1,.9,0,1.5-.8,1.5-1.9s-.5-1.8-1.4-1.8-1.2.4-1.3,1.1c0,.1,0,.2,0,.4v.8h0Z"/>
    <path class="cls-13" d="M60.5,86.5c0,1.2.8,1.7,1.7,1.7s1-.1,1.3-.2l.2.6c-.3.1-.8.3-1.6.3-1.5,0-2.4-1-2.4-2.4s.9-2.6,2.3-2.6,2,1.4,2,2.3,0,.3,0,.4h-3.4,0,0ZM63.1,85.9c0-.6-.2-1.4-1.2-1.4s-1.3.8-1.3,1.4c0,0,2.6,0,2.6,0Z"/>
    <path class="cls-13" d="M65,85.4c0-.6,0-1.1,0-1.5h.8v.9h0c.2-.7.8-1.1,1.3-1.1s.2,0,.2,0v.8c0,0-.2,0-.3,0-.6,0-1.1.5-1.2,1.1,0,.1,0,.3,0,.4v2.6h-.9v-3.3h0Z"/>
    <path class="cls-13" d="M68.2,87.8c.3.2.7.3,1.2.3.6,0,.9-.3.9-.7s-.3-.6-.9-.9c-.9-.3-1.3-.8-1.3-1.4,0-.8.6-1.4,1.7-1.4s.9.1,1.2.3l-.2.6c-.2-.1-.5-.3-1-.3s-.8.3-.8.7.3.6.9.8c.8.3,1.3.7,1.3,1.4s-.7,1.5-1.8,1.5-1-.1-1.4-.3l.2-.7h0Z"/>
    <path class="cls-13" d="M77.8,88.6c-.2.1-.7.3-1.4.3-1.5,0-2.4-1-2.4-2.5s1-2.6,2.6-2.6,1,.1,1.2.3l-.2.7c-.2-.1-.5-.2-1-.2-1.1,0-1.7.8-1.7,1.8s.7,1.8,1.7,1.8.8-.1,1.1-.2l.2.7h0Z"/>
    <path class="cls-13" d="M79.8,82.5c0,.3-.2.6-.6.6s-.5-.2-.5-.6.2-.6.6-.6.5.2.5.6ZM78.9,88.7v-4.8h.9v4.8h-.9Z"/>
    <path class="cls-13" d="M82.3,82.5v1.4h1.3v.7h-1.3v2.6c0,.6.2.9.7.9s.4,0,.5,0v.7c-.1,0-.4.1-.8.1s-.7-.1-.9-.4c-.2-.3-.3-.7-.3-1.3v-2.6h-.8v-.7h.8v-1.2l.9-.2h0Z"/>
    <path class="cls-13" d="M84.9,86.5c0,1.2.8,1.7,1.7,1.7s1-.1,1.3-.2l.2.6c-.3.1-.8.3-1.6.3-1.5,0-2.4-1-2.4-2.4s.9-2.6,2.3-2.6,2,1.4,2,2.3,0,.3,0,.4h-3.4,0ZM87.5,85.9c0-.6-.2-1.4-1.2-1.4s-1.3.8-1.3,1.4h2.6Z"/>
    <path class="cls-13" d="M93.6,81.6v5.8c0,.4,0,.9,0,1.2h-.8v-.8h0c-.3.5-.8.9-1.6.9-1.2,0-2.1-1-2.1-2.5s1-2.6,2.2-2.6,1.2.3,1.5.7h0v-2.9h.9,0ZM92.8,85.9c0-.1,0-.3,0-.4-.1-.6-.6-1-1.3-1s-1.4.8-1.4,1.9.5,1.8,1.4,1.8,1.1-.4,1.3-1.1c0-.1,0-.2,0-.4v-.8h0Z"/>
    <path class="cls-13" d="M28.3,94.5c0,.3-.2.6-.6.6s-.5-.2-.5-.6.2-.6.5-.6.5.2.5.6ZM27.4,100.7v-4.8h.9v4.8h-.9Z"/>
    <path class="cls-13" d="M29.7,97.2c0-.5,0-.9,0-1.3h.8v.8h0c.2-.4.8-.9,1.6-.9s1.7.4,1.7,2.1v2.9h-.9v-2.8c0-.8-.3-1.4-1.1-1.4s-1,.4-1.2.9c0,.1,0,.3,0,.4v2.9h-.9v-3.5h0Z"/>
    <path class="cls-13" d="M42.5,100.4c-.4.2-1.2.4-2.1.4s-1.9-.3-2.5-.9c-.6-.6-.9-1.4-.9-2.5,0-2,1.4-3.5,3.6-3.5s1.4.2,1.7.3l-.2.7c-.4-.2-.8-.3-1.5-.3-1.6,0-2.7,1-2.7,2.7s1,2.7,2.6,2.7,1,0,1.2-.2v-2h-1.4v-.7h2.2v3.2h0Z"/>
    <path class="cls-13" d="M43.8,94.1c.5,0,1.2-.2,1.8-.2,1.2,0,2.1.3,2.7.8.6.5,1,1.3,1,2.4s-.3,2-1,2.6c-.6.6-1.7,1-3,1s-1.1,0-1.6,0v-6.6h0ZM44.7,100c.2,0,.5,0,.9,0,1.9,0,2.9-1,2.9-2.9s-.9-2.6-2.7-2.6-.8,0-1,0v5.3h0Z"/>
    <path class="cls-13" d="M52.3,100.7v-.5l.7-.7c1.7-1.6,2.4-2.4,2.4-3.4,0-.7-.3-1.3-1.3-1.3s-1.1.3-1.4.6l-.3-.6c.4-.4,1.1-.7,1.8-.7,1.4,0,2,1,2,1.9s-.9,2.2-2.2,3.5l-.5.5h0s2.9,0,2.9,0v.7h-4.2Z"/>
    <path class="cls-13" d="M61.8,97.4c0,2.2-.8,3.4-2.3,3.4s-2.1-1.2-2.2-3.3c0-2.2.9-3.4,2.3-3.4s2.2,1.2,2.2,3.3ZM58.2,97.5c0,1.7.5,2.7,1.3,2.7s1.3-1.1,1.3-2.7-.4-2.7-1.3-2.7-1.3.9-1.3,2.7h0Z"/>
    <path class="cls-13" d="M64.5,95.1h0l-1.1.6-.2-.7,1.4-.8h.8v6.5h-.8s0-5.7,0-5.7Z"/>
    <path class="cls-13" d="M71.4,94.8c-.2,0-.4,0-.7,0-1.4.2-2.1,1.2-2.2,2.3h0c.3-.4.8-.8,1.6-.8,1.2,0,2,.8,2,2.1s-.8,2.3-2.2,2.3-2.3-1.1-2.3-2.8.5-2.3,1.1-2.9c.5-.5,1.3-.9,2.1-1,.3,0,.5,0,.6,0v.7h0ZM71.2,98.6c0-.9-.5-1.5-1.3-1.5s-1,.3-1.3.8c0,0,0,.2,0,.4,0,1.1.5,1.9,1.4,1.9s1.3-.6,1.3-1.6Z"/>
    <path class="cls-13" d="M77.1,97.9v.6h-4.4v-.6h4.4Z"/>
    <path class="cls-13" d="M77.8,100.7v-.5l.7-.7c1.7-1.6,2.4-2.4,2.4-3.4,0-.7-.3-1.3-1.3-1.3s-1.1.3-1.4.6l-.3-.6c.4-.4,1.1-.7,1.8-.7,1.4,0,2,1,2,1.9s-.9,2.2-2.2,3.5l-.5.5h0s2.9,0,2.9,0v.7h-4.2Z"/>
    <path class="cls-13" d="M87.3,97.4c0,2.2-.8,3.4-2.3,3.4s-2.1-1.2-2.2-3.3c0-2.2.9-3.4,2.3-3.4s2.2,1.2,2.2,3.3ZM83.8,97.5c0,1.7.5,2.7,1.3,2.7s1.3-1.1,1.3-2.7-.4-2.7-1.3-2.7-1.3.9-1.3,2.7h0Z"/>
    <path class="cls-13" d="M88.1,100.7v-.5l.7-.7c1.7-1.6,2.4-2.4,2.4-3.4,0-.7-.3-1.3-1.3-1.3s-1.1.3-1.4.6l-.3-.6c.4-.4,1.1-.7,1.8-.7,1.4,0,2,1,2,1.9s-.9,2.2-2.2,3.5l-.5.5h0s2.9,0,2.9,0v.7h-4.2Z"/>
    <path class="cls-13" d="M42.9,196.6l-.7,2.1h-.9l2.3-6.7h1l2.3,6.7h-.9l-.7-2.1s-2.4,0-2.4,0ZM45.1,195.9l-.7-1.9c-.2-.4-.2-.8-.3-1.2h0c0,.4-.2.8-.3,1.2l-.7,1.9h2,0Z"/>
    <path class="cls-13" d="M47.9,191.6h.9v7.1h-.9v-7.1Z"/>
    <path class="cls-13" d="M54.4,193.9c0,.3,0,.7,0,1.3v2.8c0,1.1-.2,1.8-.7,2.2-.5.4-1.2.6-1.8.6s-1.2-.1-1.6-.4l.2-.7c.3.2.8.4,1.4.4.9,0,1.6-.5,1.6-1.7v-.5h0c-.3.4-.8.8-1.5.8-1.2,0-2.1-1-2.1-2.4s1.1-2.6,2.2-2.6,1.3.4,1.5.8h0v-.7h.8,0ZM53.5,195.8c0-.1,0-.3,0-.4-.2-.5-.6-.9-1.2-.9s-1.4.7-1.4,1.8.5,1.7,1.4,1.7,1-.3,1.2-.9c0-.1,0-.3,0-.5v-.9h0Z"/>
    <path class="cls-13" d="M60.2,196.3c0,1.8-1.2,2.6-2.4,2.6s-2.3-1-2.3-2.5,1.1-2.6,2.4-2.6,2.3,1,2.3,2.5h0ZM56.4,196.3c0,1.1.6,1.9,1.5,1.9s1.5-.8,1.5-1.9-.4-1.9-1.5-1.9-1.5,1-1.5,1.9h0Z"/>
    <path class="cls-13" d="M61.3,195.4c0-.6,0-1.1,0-1.5h.8v.9h0c.2-.6.8-1.1,1.3-1.1s.2,0,.2,0v.8c0,0-.2,0-.3,0-.6,0-1.1.5-1.2,1.1,0,.1,0,.3,0,.4v2.6h-.9v-3.3h0Z"/>
    <path class="cls-13" d="M65.6,192.5c0,.3-.2.6-.6.6s-.5-.2-.5-.6.2-.6.6-.6.5.2.5.6ZM64.6,198.7v-4.8h.9v4.8h-.9Z"/>
    <path class="cls-13" d="M68,192.5v1.4h1.3v.7h-1.3v2.6c0,.6.2.9.7.9s.4,0,.5,0v.7c-.1,0-.4.1-.8.1s-.7-.1-.9-.4c-.2-.3-.3-.7-.3-1.3v-2.6h-.8v-.7h.8v-1.2l.9-.2h0Z"/>
    <path class="cls-13" d="M70.3,191.6h.9v3h0c.2-.2.4-.5.6-.6.3-.1.6-.2.9-.2.7,0,1.7.4,1.7,2.1v2.9h-.9v-2.8c0-.8-.3-1.4-1.1-1.4s-1,.4-1.2.9c0,.1,0,.3,0,.4v2.9h-.9v-7.1h0Z"/>
    <path class="cls-13" d="M75.8,195.2c0-.5,0-.9,0-1.3h.8v.8h0c.3-.5.7-.9,1.5-.9s1.2.4,1.4,1h0c.2-.3.3-.5.6-.6.3-.2.6-.3,1.1-.3.7,0,1.6.4,1.6,2.1v2.9h-.9v-2.7c0-.9-.3-1.5-1.1-1.5s-.9.4-1.1.8c0,.1,0,.3,0,.4v3h-.9v-2.9c0-.8-.3-1.3-1-1.3s-.9.4-1.1.9c0,.1,0,.3,0,.4v2.9h-.9v-3.5h0Z"/>
    <path class="cls-13" d="M39.8,210.5c-.2.1-.7.3-1.4.3-1.5,0-2.4-1-2.4-2.5s1-2.6,2.6-2.6,1,.1,1.2.3l-.2.7c-.2-.1-.5-.2-1-.2-1.1,0-1.7.8-1.7,1.8s.7,1.8,1.7,1.8.8-.1,1.1-.2l.2.7h0Z"/>
    <path class="cls-13" d="M45.1,208.3c0,1.8-1.2,2.6-2.4,2.6s-2.3-1-2.3-2.5,1.1-2.6,2.4-2.6,2.3,1,2.3,2.5h0ZM41.3,208.3c0,1.1.6,1.9,1.5,1.9s1.5-.8,1.5-1.9-.4-1.9-1.5-1.9-1.5,1-1.5,1.9h0Z"/>
    <path class="cls-13" d="M46.2,207.2c0-.5,0-.9,0-1.3h.8v.8h0c.3-.5.7-.9,1.5-.9s1.2.4,1.4,1h0c.2-.3.3-.5.5-.6.3-.2.6-.3,1.1-.3.7,0,1.6.4,1.6,2.1v2.9h-.9v-2.7c0-.9-.3-1.5-1-1.5s-.9.4-1,.8c0,.1,0,.3,0,.4v3h-.9v-2.9c0-.8-.3-1.3-1-1.3s-1,.4-1.1.9c0,.1,0,.3,0,.4v2.9h-.9v-3.5h0Z"/>
    <path class="cls-13" d="M54.6,207.5c0-.6,0-1.1,0-1.6h.8v.8h0c.3-.6.9-.9,1.7-.9,1.2,0,2,1,2,2.4s-1.1,2.6-2.2,2.6-1.2-.3-1.5-.8h0v2.6h-.9v-5.2h0ZM55.4,208.8c0,.1,0,.2,0,.4.2.6.7,1,1.3,1,.9,0,1.5-.8,1.5-1.9s-.5-1.8-1.4-1.8-1.2.4-1.3,1.1c0,.1,0,.2,0,.4v.8h0Z"/>
    <path class="cls-13" d="M62.9,210.7v-.6h-.1c-.3.4-.8.7-1.5.7-1,0-1.5-.7-1.5-1.4,0-1.2,1-1.8,2.9-1.8h0c0-.5-.1-1.2-1.1-1.2-.5,0-.9.1-1.3.4l-.2-.6c.4-.3,1-.4,1.6-.4,1.5,0,1.8,1,1.8,2v1.8c0,.4,0,.8,0,1.2h-.8s0,0,0,0ZM62.8,208.3c-1,0-2,.1-2,1.1s.4.8.8.8c.6,0,1-.4,1.2-.8,0,0,0-.2,0-.3v-.8h0Z"/>
    <path class="cls-13" d="M65.1,207.4c0-.6,0-1.1,0-1.5h.8v.9h0c.2-.6.8-1.1,1.3-1.1s.2,0,.2,0v.8c0,0-.2,0-.3,0-.6,0-1.1.5-1.2,1.1,0,.1,0,.3,0,.4v2.6h-.9v-3.3h0Z"/>
    <path class="cls-13" d="M69.4,204.5c0,.3-.2.6-.6.6s-.5-.2-.5-.6.2-.6.6-.6.5.2.5.6ZM68.4,210.7v-4.8h.9v4.8h-.9Z"/>
    <path class="cls-13" d="M70.6,209.8c.3.2.7.3,1.2.3.6,0,.9-.3.9-.7s-.3-.6-.9-.9c-.9-.3-1.3-.8-1.3-1.4,0-.8.6-1.4,1.7-1.4s.9.1,1.2.3l-.2.6c-.2-.1-.5-.3-1-.3s-.8.3-.8.7.3.6.9.8c.8.3,1.3.7,1.3,1.4s-.7,1.5-1.8,1.5-1-.1-1.4-.3l.2-.7h0Z"/>
    <path class="cls-13" d="M79.1,208.3c0,1.8-1.2,2.6-2.4,2.6s-2.3-1-2.3-2.5,1.1-2.6,2.4-2.6,2.3,1,2.3,2.5h0ZM75.2,208.3c0,1.1.6,1.9,1.5,1.9s1.5-.8,1.5-1.9-.4-1.9-1.5-1.9-1.5,1-1.5,1.9h0Z"/>
    <path class="cls-13" d="M80.2,207.2c0-.5,0-.9,0-1.3h.8v.8h0c.2-.4.8-.9,1.6-.9s1.7.4,1.7,2.1v2.9h-.9v-2.8c0-.8-.3-1.4-1.1-1.4s-1,.4-1.2.9c0,.1,0,.3,0,.4v2.9h-.9v-3.5s0,0,0,0Z"/>
    <path class="cls-13" d="M85.6,209.8c.3.2.7.3,1.2.3.6,0,.9-.3.9-.7s-.3-.6-.9-.9c-.9-.3-1.3-.8-1.3-1.4,0-.8.6-1.4,1.7-1.4s.9.1,1.2.3l-.2.6c-.2-.1-.5-.3-1-.3s-.8.3-.8.7.3.6.9.8c.8.3,1.3.7,1.3,1.4s-.7,1.5-1.8,1.5-1-.1-1.4-.3l.2-.7h0Z"/>
    <rect class="cls-12" x="215.2" y="70.3" width="80.4" height="48.7" rx="12.4" ry="12.4"/>
    <path class="cls-13" d="M236.6,83.3c0-.9-.1-2.1-.1-2.9h0c-.2.8-.5,1.6-.9,2.6l-1.2,3.3h-.7l-1.1-3.2c-.3-.9-.6-1.8-.8-2.6h0c0,.8,0,2-.1,3l-.2,2.9h-.8l.5-6.7h1.1l1.1,3.3c.3.8.5,1.6.7,2.3h0c.2-.7.4-1.4.7-2.3l1.2-3.3h1.1l.4,6.7h-.9l-.2-3h0Z"/>
    <path class="cls-13" d="M243.4,83.8c0,1.8-1.2,2.6-2.4,2.6s-2.3-1-2.3-2.5,1.1-2.6,2.4-2.6,2.3,1,2.3,2.5h0ZM239.6,83.8c0,1.1.6,1.9,1.5,1.9s1.5-.8,1.5-1.9-.4-1.8-1.5-1.8-1.5,1-1.5,1.9h0Z"/>
    <path class="cls-13" d="M244.5,82.9c0-.6,0-1.1,0-1.5h.8v.9h0c.2-.7.8-1.1,1.4-1.1s.2,0,.2,0v.8c0,0-.2,0-.3,0-.6,0-1.1.5-1.2,1.1,0,.1,0,.3,0,.4v2.6h-.9v-3.3h0Z"/>
    <path class="cls-13" d="M248.2,84c0,1.2.8,1.7,1.6,1.7s1-.1,1.3-.2v.6c-.2.1-.7.3-1.5.3-1.5,0-2.4-1-2.4-2.4s.9-2.6,2.3-2.6,2,1.4,2,2.3,0,.3,0,.4h-3.4,0ZM250.8,83.4c0-.6-.2-1.4-1.2-1.4s-1.3.8-1.4,1.4h2.6Z"/>
    <path class="cls-13" d="M255.9,80v1.4h1.3v.7h-1.3v2.6c0,.6.2.9.7.9s.4,0,.5,0v.7c-.1,0-.4.1-.8.1s-.7-.1-.9-.4c-.2-.3-.3-.7-.3-1.3v-2.6h-.8v-.7h.8v-1.2l.9-.2h0,0Z"/>
    <path class="cls-13" d="M258.1,79.1h.9v3h0c.1-.2.4-.5.6-.6.3-.2.6-.2.9-.2.6,0,1.7.4,1.7,2.1v2.9h-.9v-2.8c0-.8-.3-1.4-1.1-1.4s-1,.4-1.2.9c0,.1,0,.3,0,.4v2.9h-.9v-7.1h0Z"/>
    <path class="cls-13" d="M266.4,86.2v-.6h-.1c-.3.4-.8.7-1.5.7-1,0-1.5-.7-1.5-1.4,0-1.2,1-1.8,2.9-1.8h0c0-.5-.1-1.2-1.1-1.2-.5,0-.9.1-1.3.4l-.2-.6c.4-.3,1-.4,1.6-.4,1.5,0,1.8,1,1.8,2v1.8c0,.4,0,.8,0,1.2h-.8,0s0,0,0,0ZM266.2,83.8c-1,0-2,.2-2,1.1s.4.8.8.8c.6,0,1-.4,1.2-.8,0,0,0-.2,0-.3v-.8h0Z"/>
    <path class="cls-13" d="M268.5,82.7c0-.5,0-.9,0-1.3h.8v.8h0c.2-.4.8-.9,1.6-.9s1.7.4,1.7,2.1v2.9h-.9v-2.8c0-.8-.3-1.4-1.1-1.4s-1,.4-1.2.9c0,.1,0,.3,0,.4v2.9h-.9v-3.5h0Z"/>
    <path class="cls-13" d="M278.6,86.2v-1.8h-3v-.6l2.9-4.2h1v4h.9v.7h-.9v1.8h-.8,0ZM278.6,83.8v-2.2c0-.3,0-.7,0-1h0c-.2.4-.4.7-.5,1l-1.6,2.2h0s2.1,0,2.1,0Z"/>
    <path class="cls-13" d="M229.2,98.1c-.2.1-.7.3-1.4.3-1.5,0-2.4-1-2.4-2.5s1-2.6,2.6-2.6,1,.1,1.2.3l-.2.7c-.2-.1-.5-.2-1-.2-1.1,0-1.7.8-1.7,1.8s.7,1.8,1.7,1.8.8-.1,1.1-.2v.7h.2Z"/>
    <path class="cls-13" d="M231.2,92c0,.3-.2.6-.6.6s-.5-.2-.5-.6.2-.6.6-.6.5.2.5.6ZM230.2,98.2v-4.8h.9v4.8h-.9Z"/>
    <path class="cls-13" d="M233.6,92v1.4h1.3v.7h-1.3v2.6c0,.6.2.9.7.9s.4,0,.5,0v.7c-.1,0-.4.1-.8.1s-.7-.1-.9-.4c-.2-.3-.3-.7-.3-1.3v-2.6h-.8v-.7h.8v-1.2l.9-.2h0Z"/>
    <path class="cls-13" d="M238.5,98.2v-.6h-.1c-.3.4-.8.7-1.5.7-1,0-1.5-.7-1.5-1.4,0-1.2,1-1.8,2.9-1.8h0c0-.5-.1-1.2-1.1-1.2-.4,0-.9.1-1.3.4l-.2-.6c.4-.3,1-.4,1.6-.4,1.5,0,1.8,1,1.8,2v1.8c0,.4,0,.8,0,1.2h-.8,0s0,0,0,0ZM238.4,95.8c-.9,0-2,.2-2,1.1s.4.8.8.8c.6,0,1-.4,1.2-.8,0,0,0-.2,0-.3v-.8h0Z"/>
    <path class="cls-13" d="M241.7,92v1.4h1.3v.7h-1.3v2.6c0,.6.2.9.7.9s.4,0,.5,0v.7c-.1,0-.4.1-.8.1s-.7-.1-.9-.4c-.2-.3-.3-.7-.3-1.3v-2.6h-.8v-.7h.8v-1.2l.9-.2h0Z"/>
    <path class="cls-13" d="M244.9,92c0,.3-.2.6-.6.6s-.5-.2-.5-.6.2-.6.6-.6.5.2.5.6ZM243.9,98.2v-4.8h.9v4.8h-.9Z"/>
    <path class="cls-13" d="M250.6,95.8c0,1.8-1.2,2.6-2.4,2.6s-2.3-1-2.3-2.5,1.1-2.6,2.4-2.6,2.3,1,2.3,2.5h0ZM246.8,95.8c0,1.1.6,1.9,1.5,1.9s1.5-.8,1.5-1.9-.4-1.8-1.5-1.8-1.5,1-1.5,1.9h0Z"/>
    <path class="cls-13" d="M251.8,94.7c0-.5,0-.9,0-1.3h.8v.8h0c.2-.4.8-.9,1.6-.9s1.7.4,1.7,2.1v2.9h-.9v-2.8c0-.8-.3-1.4-1.1-1.4s-1,.4-1.2.9c0,.1,0,.3,0,.4v2.9h-.9v-3.5h0s0,0,0,0Z"/>
    <path class="cls-13" d="M257.2,97.3c.3.2.7.3,1.2.3.6,0,.9-.3.9-.7s-.3-.6-.9-.9c-.9-.3-1.3-.8-1.3-1.4,0-.8.6-1.4,1.7-1.4s.9.1,1.2.3l-.2.6c-.2-.1-.5-.3-1-.3s-.8.3-.8.7.3.6.9.8c.8.3,1.3.7,1.3,1.4s-.7,1.5-1.8,1.5-1-.1-1.4-.3l.2-.7h0Z"/>
    <path class="cls-13" d="M264.4,92c0,.3-.2.6-.6.6s-.5-.2-.5-.6.2-.6.5-.6.5.2.5.6ZM263.4,98.2v-4.8h.9v4.8h-.9Z"/>
    <path class="cls-13" d="M265.7,94.7c0-.5,0-.9,0-1.3h.8v.8h0c.2-.4.8-.9,1.6-.9s1.7.4,1.7,2.1v2.9h-.9v-2.8c0-.8-.3-1.4-1.1-1.4s-1,.4-1.2.9c0,.1,0,.3,0,.4v2.9h-.9v-3.5h0Z"/>
    <path class="cls-13" d="M278.6,97.9c-.4.2-1.2.4-2.1.4s-1.9-.3-2.5-.9c-.6-.6-.9-1.4-.9-2.5,0-2,1.4-3.5,3.6-3.5s1.4.2,1.7.3l-.2.7c-.4-.2-.8-.3-1.5-.3-1.6,0-2.7,1-2.7,2.7s1,2.7,2.6,2.7,1,0,1.2-.2v-2h-1.4v-.7h2.2v3.2h0Z"/>
    <path class="cls-13" d="M279.9,91.6c.5,0,1.2-.2,1.9-.2,1.2,0,2.1.3,2.7.8.6.5,1,1.3,1,2.4s-.4,2-1,2.6c-.6.6-1.7,1-3,1s-1.1,0-1.6,0v-6.6h0ZM280.8,97.5c.2,0,.5,0,.9,0,1.9,0,2.9-1,2.9-2.9,0-1.6-.9-2.6-2.7-2.6s-.8,0-1,0v5.3h0Z"/>
    <path class="cls-13" d="M230.8,110.2v-.5l.7-.7c1.7-1.6,2.4-2.4,2.4-3.4,0-.7-.3-1.3-1.3-1.3s-1.1.3-1.4.6l-.3-.6c.4-.4,1.1-.7,1.8-.7,1.4,0,2,1,2,1.9s-.9,2.2-2.2,3.5l-.5.5h0s2.9,0,2.9,0v.7h-4.1Z"/>
    <path class="cls-13" d="M240.2,106.9c0,2.2-.8,3.4-2.3,3.4s-2.1-1.2-2.1-3.3c0-2.2.9-3.4,2.3-3.4s2.1,1.2,2.1,3.3ZM236.7,107c0,1.7.5,2.7,1.3,2.7s1.3-1.1,1.3-2.7-.4-2.7-1.3-2.7-1.3.9-1.3,2.7h0Z"/>
    <path class="cls-13" d="M242.9,104.6h0l-1.1.6-.2-.7,1.4-.8h.8v6.5h-.9v-5.7h0Z"/>
    <path class="cls-13" d="M249.9,104.3c-.2,0-.4,0-.7,0-1.4.2-2.1,1.2-2.2,2.3h0c.3-.4.9-.8,1.6-.8,1.2,0,2,.8,2,2.1s-.8,2.3-2.2,2.3-2.3-1.1-2.3-2.8.5-2.3,1.1-2.9c.5-.5,1.3-.9,2.1-1,.3,0,.5,0,.6,0v.7h0ZM249.6,108.1c0-.9-.5-1.5-1.3-1.5s-1,.3-1.3.8c0,0,0,.2,0,.4,0,1.1.5,1.9,1.4,1.9s1.3-.6,1.3-1.6h0Z"/>
    <path class="cls-13" d="M255.6,107.4v.6h-4.4v-.6h4.4Z"/>
    <path class="cls-13" d="M256.3,110.2v-.5l.7-.7c1.7-1.6,2.4-2.4,2.4-3.4,0-.7-.3-1.3-1.3-1.3s-1.1.3-1.4.6l-.3-.6c.5-.4,1.1-.7,1.8-.7,1.4,0,2,1,2,1.9s-.9,2.2-2.2,3.5l-.5.5h0s2.9,0,2.9,0v.7h-4.2Z"/>
    <path class="cls-13" d="M265.8,106.9c0,2.2-.8,3.4-2.3,3.4s-2.1-1.2-2.1-3.3c0-2.2.9-3.4,2.3-3.4s2.1,1.2,2.1,3.3ZM262.2,107c0,1.7.5,2.7,1.3,2.7s1.3-1.1,1.3-2.7-.4-2.7-1.3-2.7-1.3.9-1.3,2.7h0Z"/>
    <path class="cls-13" d="M266.6,110.2v-.5l.7-.7c1.7-1.6,2.4-2.4,2.4-3.4,0-.7-.3-1.3-1.3-1.3s-1.1.3-1.4.6l-.3-.6c.5-.4,1.1-.7,1.8-.7,1.4,0,2,1,2,1.9s-.9,2.2-2.2,3.5l-.5.5h0s2.9,0,2.9,0v.7h-4.2Z"/>
    <path class="cls-13" d="M277.8,108.3v-.3c0-.5.1-1.1.6-1.7.5-.5.7-.9.7-1.4s-.3-.9-1-.9-.8.1-1,.3l-.2-.6c.3-.2.9-.4,1.4-.4,1.1,0,1.7.7,1.7,1.5s-.4,1.2-.9,1.7c-.4.5-.6,1-.6,1.5v.3h-.8,0ZM277.6,109.7c0-.4.2-.6.6-.6s.6.3.6.6-.2.6-.6.6-.6-.3-.6-.6Z"/>
    <rect class="cls-12" x="215.2" y="205.7" width="80.4" height="48.7" rx="12.4" ry="12.4"/>
    <path class="cls-13" d="M228.2,216.1c0-.8,0-1.7,0-2.3h0c-.2.6-.4,1.3-.7,2l-.9,2.6h-.5l-.9-2.6c-.3-.8-.5-1.4-.6-2.1h0c0,.7,0,1.6-.1,2.4v2.3h-.8l.4-5.4h.9l.9,2.6c.2.7.4,1.2.5,1.8h0c.1-.6.3-1.1.6-1.8l1-2.6h.9l.3,5.4h-.7v-2.4h-.1,0Z"/>
    <path class="cls-13" d="M233.6,216.5c0,1.4-1,2.1-1.9,2.1s-1.9-.8-1.9-2,.9-2.1,1.9-2.1,1.9.8,1.9,2h0ZM230.6,216.5c0,.9.5,1.5,1.2,1.5s1.2-.6,1.2-1.5-.3-1.5-1.2-1.5-1.2.8-1.2,1.5h0Z"/>
    <path class="cls-13" d="M234.5,215.8c0-.5,0-.9,0-1.2h.6v.8h0c.2-.5.6-.9,1.1-.9s.1,0,.2,0v.7c0,0-.1,0-.2,0-.5,0-.9.4-.9.9,0,.1,0,.2,0,.3v2.1h-.7v-2.7h0Z"/>
    <path class="cls-13" d="M237.4,216.6c0,.9.6,1.3,1.3,1.3s.8,0,1.1-.2v.5c-.1.1-.6.2-1.2.2-1.2,0-1.9-.8-1.9-1.9s.7-2.1,1.8-2.1,1.6,1.1,1.6,1.8,0,.2,0,.3h-2.7ZM239.5,216.1c0-.4-.2-1.1-1-1.1s-1,.6-1.1,1.1h2.1Z"/>
    <path class="cls-13" d="M245.5,218.3c-.2,0-.6.2-1.1.2-1.2,0-1.9-.8-1.9-2s.8-2.1,2.1-2.1.8.1,1,.2l-.2.5c-.2,0-.4-.2-.8-.2-.9,0-1.4.7-1.4,1.5,0,.9.6,1.4,1.4,1.4s.7-.1.9-.2v.5h.1,0Z"/>
    <path class="cls-13" d="M247.1,213.5c0,.2-.2.4-.4.4s-.4-.2-.4-.4c0-.2.2-.4.4-.4s.4.2.4.4ZM246.3,218.4v-3.9h.7v3.9h-.7Z"/>
    <path class="cls-13" d="M249.1,213.5v1.1h1v.5h-1v2.1c0,.5.1.8.5.8s.3,0,.4,0v.5c-.1,0-.3.1-.6.1s-.6-.1-.8-.3c-.2-.2-.3-.6-.3-1v-2.1h-.6v-.5h.6v-.9l.7-.2h0Z"/>
    <path class="cls-13" d="M253,218.4v-.5h0c-.2.3-.6.6-1.2.6-.8,0-1.2-.6-1.2-1.1,0-.9.8-1.4,2.3-1.4h0c0-.4,0-1-.9-1-.4,0-.7.1-1,.3l-.2-.5c.3-.2.8-.3,1.3-.3,1.2,0,1.5.8,1.5,1.6v1.4c0,.3,0,.7,0,.9h-.6ZM252.9,216.5c-.8,0-1.6.1-1.6.9s.3.7.7.7c.5,0,.8-.3.9-.6,0,0,0-.1,0-.2v-.7Z"/>
    <path class="cls-13" d="M255.5,213.5v1.1h1v.5h-1v2.1c0,.5.1.8.5.8s.3,0,.4,0v.5c-.1,0-.3.1-.6.1s-.6-.1-.8-.3c-.2-.2-.3-.6-.3-1v-2.1h-.6v-.5h.6v-.9l.7-.2h0Z"/>
    <path class="cls-13" d="M258.1,213.5c0,.2-.2.4-.5.4s-.4-.2-.4-.4c0-.2.2-.4.4-.4s.4.2.4.4h0ZM257.3,218.4v-3.9h.7v3.9h-.7Z"/>
    <path class="cls-13" d="M262.7,216.5c0,1.4-1,2.1-1.9,2.1s-1.9-.8-1.9-2,.9-2.1,1.9-2.1,1.9.8,1.9,2h0ZM259.6,216.5c0,.9.5,1.5,1.2,1.5s1.2-.6,1.2-1.5-.3-1.5-1.2-1.5-1.2.8-1.2,1.5h0Z"/>
    <path class="cls-13" d="M263.6,215.6c0-.4,0-.7,0-1h.6v.6h0c.2-.4.6-.7,1.3-.7s1.4.3,1.4,1.6v2.3h-.7v-2.2c0-.6-.2-1.1-.9-1.1s-.8.3-1,.7c0,0,0,.2,0,.3v2.3h-.7v-2.8h0Z"/>
    <path class="cls-13" d="M267.9,217.7c.2.1.6.3.9.3.5,0,.8-.2.8-.6s-.2-.5-.7-.7c-.7-.2-1-.6-1-1.1s.5-1.1,1.3-1.1.7.1,1,.2l-.2.5c-.1,0-.4-.2-.8-.2s-.6.2-.6.5.2.5.7.7c.7.2,1,.6,1,1.2s-.5,1.2-1.5,1.2-.8-.1-1.1-.3l.2-.5h0Z"/>
    <path class="cls-13" d="M273.8,213.5v1.1h1v.5h-1v2.1c0,.5.1.8.5.8s.3,0,.4,0v.5c-.1,0-.3.1-.6.1s-.6-.1-.8-.3c-.2-.2-.3-.6-.3-1v-2.1h-.6v-.5h.6v-.9l.7-.2h0Z"/>
    <path class="cls-13" d="M275.5,212.8h.7v2.4h0c.1-.2.3-.4.5-.5.2-.1.5-.2.7-.2.5,0,1.4.3,1.4,1.6v2.3h-.7v-2.2c0-.6-.2-1.1-.9-1.1s-.8.3-1,.7c0,.1,0,.2,0,.3v2.3h-.7v-5.7h0s0,0,0,0Z"/>
    <path class="cls-13" d="M282.1,218.4v-.5h0c-.2.3-.6.6-1.2.6-.8,0-1.2-.6-1.2-1.1,0-.9.8-1.4,2.3-1.4h0c0-.4,0-1-.9-1-.4,0-.7.1-1,.3l-.2-.5c.3-.2.8-.3,1.3-.3,1.2,0,1.5.8,1.5,1.6v1.4c0,.3,0,.7,0,.9h-.6ZM282,216.5c-.8,0-1.6.1-1.6.9s.3.7.7.7c.5,0,.8-.3.9-.6,0,0,0-.1,0-.2v-.7Z"/>
    <path class="cls-13" d="M283.9,215.6c0-.4,0-.7,0-1h.6v.6h0c.2-.4.6-.7,1.3-.7s1.4.3,1.4,1.6v2.3h-.7v-2.2c0-.6-.2-1.1-.9-1.1s-.8.3-1,.7c0,0,0,.2,0,.3v2.3h-.7v-2.8h0Z"/>
    <path class="cls-13" d="M233.2,228v-.5h0c-.2.3-.6.6-1.2.6-.8,0-1.2-.6-1.2-1.1,0-.9.8-1.4,2.3-1.4h0c0-.4,0-1-.9-1-.4,0-.7.1-1,.3l-.2-.5c.3-.2.8-.3,1.3-.3,1.2,0,1.5.8,1.5,1.6v1.4c0,.3,0,.7,0,.9h-.6ZM233.1,226.1c-.8,0-1.6.1-1.6.9s.3.7.7.7c.5,0,.8-.3.9-.6,0,0,0-.1,0-.2v-.7Z"/>
    <path class="cls-13" d="M235.2,224.2l.8,2.2c.1.4.2.7.3,1h0c0-.3.2-.6.3-1l.8-2.2h.7l-1.5,3.9h-.7l-1.5-3.9h.8,0Z"/>
    <path class="cls-13" d="M242,224.2c0,.3,0,.6,0,1.1v2.2c0,.9-.2,1.4-.6,1.8-.4.4-.9.5-1.4.5s-1-.1-1.3-.3l.2-.5c.3.2.7.3,1.1.3.7,0,1.2-.4,1.2-1.4v-.4h0c-.2.4-.6.6-1.2.6-1,0-1.6-.8-1.6-1.9s.9-2.1,1.8-2.1,1,.4,1.2.7h0v-.6h.6,0ZM241.3,225.7c0-.1,0-.2,0-.3-.1-.4-.5-.8-1-.8s-1.1.6-1.1,1.5.4,1.4,1.1,1.4.8-.3,1-.7c0-.1,0-.2,0-.4v-.7h0Z"/>
    <path class="cls-13" d="M246.9,223.8v1.9h1.8v.5h-1.8v1.9h-.5v-1.9h-1.8v-.5h1.8v-1.9h.5Z"/>
    <path class="cls-13" d="M251.2,227.3c.2.1.6.3.9.3.5,0,.8-.2.8-.6s-.2-.5-.7-.7c-.7-.2-1-.6-1-1.1s.5-1.1,1.3-1.1.7.1.9.2l-.2.5c-.1,0-.4-.2-.8-.2s-.6.2-.6.5.2.5.7.7c.7.2,1,.6,1,1.2s-.5,1.2-1.4,1.2-.8-.1-1.1-.3l.2-.5h0Z"/>
    <path class="cls-13" d="M255.3,223.1v1.1h1v.5h-1v2.1c0,.5.1.8.5.8s.3,0,.4,0v.5c-.1,0-.3.1-.6.1s-.6-.1-.8-.3c-.2-.2-.3-.6-.3-1v-2.1h-.6v-.5h.6v-.9l.7-.2h0Z"/>
    <path class="cls-13" d="M259.3,228v-.5h0c-.2.3-.6.6-1.2.6-.8,0-1.2-.6-1.2-1.1,0-.9.8-1.4,2.3-1.4h0c0-.4,0-1-.9-1-.4,0-.7.1-1,.3l-.2-.5c.3-.2.8-.3,1.3-.3,1.2,0,1.5.8,1.5,1.6v1.4c0,.3,0,.7,0,.9h-.6ZM259.2,226.1c-.8,0-1.6.1-1.6.9s.3.7.7.7c.5,0,.8-.3.9-.6,0,0,0-.1,0-.2v-.7Z"/>
    <path class="cls-13" d="M261,225.2c0-.4,0-.7,0-1h.6v.6h0c.2-.4.6-.7,1.3-.7s1.4.3,1.4,1.6v2.3h-.7v-2.2c0-.6-.2-1.1-.9-1.1s-.8.3-1,.7c0,0,0,.2,0,.3v2.3h-.7v-2.8h0Z"/>
    <path class="cls-13" d="M268.8,222.4v4.7c0,.3,0,.7,0,1h-.6v-.7h0c-.2.4-.7.8-1.3.8-.9,0-1.7-.8-1.7-2s.8-2.1,1.7-2.1,1,.3,1.2.6h0v-2.3h.7,0ZM268,225.7c0,0,0-.2,0-.3-.1-.4-.5-.8-1-.8s-1.2.6-1.2,1.5.4,1.4,1.1,1.4.9-.3,1-.8c0,0,0-.2,0-.3v-.7h0Z"/>
    <path class="cls-13" d="M272.1,228v-.5h0c-.2.3-.6.6-1.2.6-.8,0-1.2-.6-1.2-1.1,0-.9.8-1.4,2.3-1.4h0c0-.4,0-1-.9-1-.4,0-.7.1-1,.3l-.2-.5c.3-.2.8-.3,1.3-.3,1.2,0,1.5.8,1.5,1.6v1.4c0,.3,0,.7,0,.9h-.6ZM272,226.1c-.8,0-1.6.1-1.6.9s.3.7.7.7c.5,0,.8-.3.9-.6,0,0,0-.1,0-.2v-.7Z"/>
    <path class="cls-13" d="M273.8,225.4c0-.5,0-.9,0-1.2h.6v.8h0c.2-.5.6-.9,1.1-.9s.1,0,.2,0v.7c0,0-.1,0-.2,0-.5,0-.9.4-.9.9,0,.1,0,.2,0,.3v2.1h-.7v-2.7h0Z"/>
    <path class="cls-13" d="M279.6,222.4v4.7c0,.3,0,.7,0,1h-.6v-.7h0c-.2.4-.7.8-1.3.8-.9,0-1.7-.8-1.7-2s.8-2.1,1.7-2.1,1,.3,1.2.6h0v-2.3h.7,0ZM278.9,225.7c0,0,0-.2,0-.3-.1-.4-.5-.8-1-.8s-1.2.6-1.2,1.5.4,1.4,1.1,1.4.9-.3,1-.8c0,0,0-.2,0-.3v-.7h0Z"/>
    <path class="cls-13" d="M233.4,232v4.7c0,.3,0,.7,0,1h-.6v-.7h0c-.2.4-.7.8-1.3.8-.9,0-1.7-.8-1.7-2s.8-2.1,1.7-2.1,1,.3,1.2.6h0v-2.3h.7,0ZM232.7,235.3c0,0,0-.2,0-.3-.1-.4-.5-.8-1-.8s-1.2.6-1.2,1.5.4,1.4,1.1,1.4.9-.3,1-.8c0,0,0-.2,0-.3v-.7h0Z"/>
    <path class="cls-13" d="M235,235.8c0,.9.6,1.3,1.3,1.3s.8,0,1.1-.2v.5c-.1.1-.6.2-1.2.2-1.2,0-1.9-.8-1.9-1.9s.7-2.1,1.8-2.1,1.6,1.1,1.6,1.8,0,.2,0,.3h-2.7ZM237.1,235.3c0-.4-.2-1.1-1-1.1s-1,.6-1.1,1.1h2.1Z"/>
    <path class="cls-13" d="M238.9,233.8l.8,2.2c.1.4.2.7.3,1h0c0-.3.2-.6.3-1l.8-2.2h.7l-1.5,3.9h-.7l-1.5-3.9h.8,0Z"/>
    <path class="cls-13" d="M243.2,232.7c0,.2-.2.4-.4.4s-.4-.2-.4-.4c0-.2.2-.4.4-.4s.4.2.4.4ZM242.5,237.6v-3.9h.7v3.9h-.7Z"/>
    <path class="cls-13" d="M246.5,237.6v-.5h0c-.2.3-.6.6-1.2.6-.8,0-1.2-.6-1.2-1.1,0-.9.8-1.4,2.3-1.4h0c0-.4,0-1-.9-1-.4,0-.7.1-1,.3l-.2-.5c.3-.2.8-.3,1.3-.3,1.2,0,1.5.8,1.5,1.6v1.4c0,.3,0,.7,0,.9h-.6ZM246.4,235.7c-.8,0-1.6.1-1.6.9s.3.7.7.7c.5,0,.8-.3.9-.6,0,0,0-.1,0-.2v-.7Z"/>
    <path class="cls-13" d="M249,232.7v1.1h1v.5h-1v2.1c0,.5.1.8.5.8s.3,0,.4,0v.5c-.1,0-.3.1-.6.1s-.6-.1-.8-.3c-.2-.2-.3-.6-.3-1v-2.1h-.6v-.5h.6v-.9l.7-.2h0Z"/>
    <path class="cls-13" d="M251.6,232.7c0,.2-.2.4-.4.4s-.4-.2-.4-.4c0-.2.2-.4.4-.4s.4.2.4.4ZM250.8,237.6v-3.9h.7v3.9h-.7Z"/>
    <path class="cls-13" d="M256.2,235.7c0,1.4-1,2.1-1.9,2.1s-1.9-.8-1.9-2,.9-2.1,1.9-2.1,1.9.8,1.9,2h0ZM253.1,235.7c0,.9.5,1.5,1.2,1.5s1.2-.6,1.2-1.5-.3-1.5-1.2-1.5-1.2.8-1.2,1.5h0Z"/>
    <path class="cls-13" d="M257.1,234.8c0-.4,0-.7,0-1h.6v.6h0c.2-.4.6-.7,1.3-.7s1.4.3,1.4,1.6v2.3h-.7v-2.2c0-.6-.2-1.1-.9-1.1s-.8.3-1,.7c0,0,0,.2,0,.3v2.3h-.7v-2.8h0Z"/>
    <path class="cls-13" d="M263.3,237.6v-3.3h-.5v-.5h.5v-.2c0-.6.1-1,.5-1.4.3-.2.6-.4.9-.4s.5,0,.6.1v.5c-.2,0-.3,0-.5,0-.6,0-.8.5-.8,1.1v.2h.9v.5h-.9v3.3h-.7Z"/>
    <path class="cls-13" d="M268.9,235.7c0,1.4-1,2.1-1.9,2.1s-1.9-.8-1.9-2,.9-2.1,1.9-2.1,1.9.8,1.9,2h0ZM265.9,235.7c0,.9.5,1.5,1.2,1.5s1.2-.6,1.2-1.5-.3-1.5-1.2-1.5-1.2.8-1.2,1.5h0Z"/>
    <path class="cls-13" d="M269.8,235c0-.5,0-.9,0-1.2h.6v.8h0c.2-.5.6-.9,1.1-.9s.1,0,.2,0v.7c0,0-.1,0-.2,0-.5,0-.9.4-.9.9,0,.1,0,.2,0,.3v2.1h-.7v-2.7h0Z"/>
    <path class="cls-13" d="M274.9,232.7c0,.2-.2.4-.5.4s-.4-.2-.4-.4c0-.2.2-.4.4-.4s.4.2.4.4h0ZM274.1,237.6v-3.9h.7v3.9h-.7Z"/>
    <path class="cls-13" d="M276.9,232.7v1.1h1v.5h-1v2.1c0,.5.1.8.5.8s.3,0,.4,0v.5c-.1,0-.3.1-.6.1s-.6-.1-.8-.3c-.2-.2-.3-.6-.3-1v-2.1h-.6v-.5h.6v-.9l.7-.2h0Z"/>
    <path class="cls-13" d="M278.6,236.9c.2.1.6.3.9.3.5,0,.8-.2.8-.6s-.2-.5-.7-.7c-.7-.2-1-.6-1-1.1s.5-1.1,1.3-1.1.7.1,1,.2l-.2.5c-.1,0-.4-.2-.8-.2s-.6.2-.6.5.2.5.7.7c.7.2,1,.6,1,1.2s-.5,1.2-1.5,1.2-.8-.1-1.1-.3l.2-.5h0Z"/>
    <path class="cls-13" d="M227.4,244.6c0-.5,0-.9,0-1.3h.6v.7h0c.3-.5.7-.8,1.4-.8.9,0,1.6.8,1.6,2s-.9,2.1-1.8,2.1-1-.2-1.2-.6h0v2.1h-.7v-4.2h0ZM228.1,245.7c0,.1,0,.2,0,.3.1.5.6.8,1.1.8.8,0,1.2-.6,1.2-1.5s-.4-1.4-1.1-1.4-.9.3-1.1.9c0,0,0,.2,0,.3v.7h0s0,0,0,0Z"/>
    <path class="cls-13" d="M235.2,246.2c0,.4,0,.8,0,1.1h-.6v-.6h0c-.2.3-.6.7-1.3.7s-1.3-.3-1.3-1.7v-2.3h.7v2.1c0,.7.2,1.2.9,1.2s.8-.3.9-.6c0-.1,0-.2,0-.4v-2.4h.7v2.8h0Z"/>
    <path class="cls-13" d="M236.3,247.2c0-.3,0-.6,0-1v-4.7h.7v2.4h0c.2-.4.7-.7,1.3-.7,1,0,1.6.8,1.6,2,0,1.4-.9,2.1-1.7,2.1s-1-.2-1.3-.7h0v.6h-.6,0ZM237.1,245.7c0,0,0,.2,0,.2.1.5.6.8,1.1.8.7,0,1.2-.6,1.2-1.5s-.4-1.4-1.1-1.4-.9.3-1.1.9c0,0,0,.2,0,.3v.7h0Z"/>
    <path class="cls-13" d="M240.9,241.6h.7v5.7h-.7v-5.7Z"/>
    <path class="cls-13" d="M243.6,242.3c0,.2-.2.4-.4.4s-.4-.2-.4-.4c0-.2.2-.4.4-.4s.4.2.4.4ZM242.8,247.2v-3.9h.7v3.9h-.7Z"/>
    <path class="cls-13" d="M247.4,247.1c-.2,0-.6.2-1.1.2-1.2,0-1.9-.8-1.9-2s.8-2.1,2.1-2.1.8.1,1,.2l-.2.5c-.2,0-.4-.2-.8-.2-.9,0-1.4.7-1.4,1.5,0,.9.6,1.4,1.4,1.4s.7-.1.9-.2v.5h.1,0Z"/>
    <path class="cls-13" d="M250.4,247.2v-.5h0c-.2.3-.6.6-1.2.6-.8,0-1.2-.6-1.2-1.1,0-.9.8-1.4,2.3-1.4h0c0-.4,0-1-.9-1-.4,0-.7.1-1,.3l-.2-.5c.3-.2.8-.3,1.3-.3,1.2,0,1.5.8,1.5,1.6v1.4c0,.3,0,.7,0,.9h-.6ZM250.3,245.3c-.8,0-1.6.1-1.6.9s.3.7.7.7c.5,0,.8-.3.9-.6,0,0,0-.1,0-.2v-.7Z"/>
    <path class="cls-13" d="M252.9,242.3v1.1h1v.5h-1v2.1c0,.5.1.8.5.8s.3,0,.4,0v.5c-.1,0-.3.1-.6.1s-.6-.1-.8-.3c-.2-.2-.3-.6-.3-1v-2.1h-.6v-.5h.6v-.9l.7-.2h0Z"/>
    <path class="cls-13" d="M255.5,242.3c0,.2-.2.4-.4.4s-.4-.2-.4-.4c0-.2.2-.4.4-.4s.4.2.4.4h0ZM254.7,247.2v-3.9h.7v3.9h-.7Z"/>
    <path class="cls-13" d="M260.1,245.3c0,1.4-1,2.1-1.9,2.1s-1.9-.8-1.9-2,.9-2.1,1.9-2.1,1.9.8,1.9,2h0ZM257,245.3c0,.9.5,1.5,1.2,1.5s1.2-.6,1.2-1.5-.3-1.5-1.2-1.5-1.2.8-1.2,1.5h0Z"/>
    <path class="cls-13" d="M261,244.4c0-.4,0-.7,0-1h.6v.6h0c.2-.4.6-.7,1.3-.7s1.4.3,1.4,1.6v2.3h-.7v-2.2c0-.6-.2-1.1-.9-1.1s-.8.3-1,.7c0,0,0,.2,0,.3v2.3h-.7v-2.8h0Z"/>
    <path class="cls-13" d="M267.4,243.4l.9,2.3c0,.3.2.6.2.8h0c0-.2.1-.5.2-.8l.8-2.3h.8l-1.1,2.8c-.5,1.3-.9,2-1.3,2.4-.4.3-.7.4-.9.4l-.2-.6c.2,0,.4-.2.6-.3.2-.1.4-.4.6-.8,0,0,0-.1,0-.2s0,0,0-.2l-1.4-3.6h.8,0Z"/>
    <path class="cls-13" d="M271.2,245.4c0,.9.6,1.3,1.3,1.3s.8,0,1.1-.2v.5c-.1.1-.6.2-1.2.2-1.2,0-1.9-.8-1.9-1.9s.7-2.1,1.8-2.1,1.6,1.1,1.6,1.8,0,.2,0,.3h-2.7ZM273.3,244.9c0-.4-.2-1.1-1-1.1s-1,.6-1.1,1.1h2Z"/>
    <path class="cls-13" d="M277,247.2v-.5h0c-.2.3-.6.6-1.2.6-.8,0-1.2-.6-1.2-1.1,0-.9.8-1.4,2.3-1.4h0c0-.4,0-1-.9-1-.4,0-.7.1-1,.3l-.2-.5c.3-.2.8-.3,1.3-.3,1.2,0,1.5.8,1.5,1.6v1.4c0,.3,0,.7,0,.9h-.6ZM276.9,245.3c-.8,0-1.6.1-1.6.9s.3.7.7.7c.5,0,.8-.3.9-.6,0,0,0-.1,0-.2v-.7Z"/>
    <path class="cls-13" d="M278.7,244.6c0-.5,0-.9,0-1.2h.6v.8h0c.2-.5.6-.9,1.1-.9s.1,0,.2,0v.7c0,0-.1,0-.2,0-.5,0-.9.4-.9.9,0,.1,0,.2,0,.3v2.1h-.7v-2.7h0Z"/>
    <path class="cls-13" d="M281.8,245.7v-.2c0-.4,0-.9.5-1.4.4-.4.6-.7.6-1.1s-.2-.7-.8-.7c-.3,0-.6,0-.8.2l-.2-.5c.3-.2.7-.3,1.1-.3.9,0,1.3.6,1.3,1.2s-.3.9-.7,1.4c-.4.4-.5.8-.5,1.2v.2h-.6,0ZM281.7,246.8c0-.3.2-.5.5-.5s.5.2.5.5-.2.5-.5.5-.5-.2-.5-.5Z"/>
    <rect class="cls-8" x="215.2" y="138" width="80.4" height="48.7" rx="12.4" ry="12.4"/>
    <path class="cls-6" d="M243.1,156.9h-2.5v2h2.8v1h-4.1v-6.7h3.9v1h-2.7v1.7h2.5v1h0Z"/>
    <path class="cls-6" d="M245.2,155l.6.9c.2.3.3.5.4.8h0c.1-.3.3-.5.4-.8l.5-.9h1.3l-1.6,2.3,1.7,2.5h-1.4l-.6-1c-.2-.3-.3-.5-.4-.8h0c-.1.3-.3.5-.4.8l-.6,1h-1.4l1.7-2.5-1.6-2.4h1.4,0Z"/>
    <path class="cls-6" d="M252.7,159.8c-.2.1-.8.2-1.4.2-1.5,0-2.5-1-2.5-2.5s1-2.6,2.7-2.6.9.1,1.2.2l-.2.9c-.2-.1-.5-.2-.9-.2-.9,0-1.5.7-1.5,1.6s.7,1.6,1.5,1.6.7,0,1-.2l.2.9h0Z"/>
    <path class="cls-6" d="M253.6,152.8h1.2v7.1h-1.2v-7.1h0Z"/>
    <path class="cls-6" d="M260.5,158.4c0,.6,0,1.1,0,1.5h-1.1v-.7h0c-.2.3-.7.9-1.6.9s-1.7-.5-1.7-2.1v-2.9h1.2v2.6c0,.8.3,1.3.9,1.3s.8-.3.9-.7c0-.1,0-.2,0-.4v-2.9h1.2v3.4h0Z"/>
    <path class="cls-6" d="M266.4,152.8v5.7c0,.5,0,1,0,1.4h-1.1v-.8h0c-.3.5-.9.9-1.6.9-1.2,0-2.1-1-2.1-2.5s1-2.6,2.2-2.6,1.1.3,1.4.6h0v-2.8h1.2ZM265.1,157.1c0-.1,0-.2,0-.3-.1-.5-.5-.9-1.1-.9s-1.2.7-1.2,1.6.4,1.6,1.2,1.6.9-.3,1.1-.9c0-.1,0-.2,0-.4v-.7Z"/>
    <path class="cls-6" d="M268.6,157.8c0,.9.7,1.3,1.5,1.3s1,0,1.3-.2l.2.9c-.4.2-1,.3-1.7.3-1.6,0-2.5-1-2.5-2.5s.8-2.6,2.4-2.6,2.1,1.3,2.1,2.4,0,.4,0,.5h-3.3,0ZM270.7,156.9c0-.4-.2-1.2-1-1.2s-1.1.7-1.1,1.2h2.1Z"/>
    <path class="cls-6" d="M242.4,173v-8h1.9v.7h-1v6.6h1v.7h-1.9Z"/>
    <path class="cls-6" d="M247,166.5h0l-1.2.6-.2-.9,1.6-.8h1v6.5h-1.2v-5.4h0Z"/>
    <path class="cls-6" d="M250.9,171c.2,0,.4,0,.7,0,.5,0,1-.2,1.3-.5.4-.3.7-.8.8-1.4h0c-.3.4-.8.6-1.4.6-1.1,0-2-.8-2-2s1-2.3,2.4-2.3,2.3,1.2,2.3,2.8-.4,2.4-1.1,3c-.6.5-1.3.8-2.2.9-.3,0-.6,0-.7,0v-1h0ZM251.6,167.5c0,.7.4,1.2,1.1,1.2s.9-.2,1-.5c0,0,0-.2,0-.4,0-.9-.3-1.6-1.1-1.6s-1.1.6-1.1,1.3h0Z"/>
    <path class="cls-6" d="M255.7,170.2c0-.8.5-1.4,1.2-1.7h0c-.7-.4-1-.9-1-1.5,0-1.1.9-1.8,2.2-1.8s2,.8,2,1.6-.3,1.1-1,1.5h0c.7.3,1.2.9,1.2,1.7,0,1.2-1,1.9-2.4,1.9s-2.3-.9-2.3-1.8h0ZM259.1,170.2c0-.7-.5-1-1.2-1.2-.6.2-1,.6-1,1.1,0,.6.4,1.1,1.1,1.1s1.1-.4,1.1-1h0ZM257.1,167c0,.5.4.9,1.1,1,.4-.1.8-.5.8-1s-.3-.9-.9-.9-.9.4-.9.9Z"/>
    <path class="cls-6" d="M265.8,168.6c0,2.1-.8,3.4-2.4,3.4s-2.3-1.4-2.3-3.3c0-2,.9-3.4,2.4-3.4s2.3,1.4,2.3,3.3h0ZM262.3,168.7c0,1.6.4,2.4,1.1,2.4s1.1-.9,1.1-2.4-.4-2.4-1.1-2.4-1.1.8-1.1,2.4h0Z"/>
    <path class="cls-6" d="M268.4,165v8h-2v-.7h1v-6.6h-1v-.7h2Z"/>
    <rect class="cls-1" x="399.9" y="6" width="180" height="231.7" rx="12.4" ry="12.4"/>
    <path class="cls-13" d="M453.7,39.8v6.7h-1.5v-6.7h1.5Z"/>
    <path class="cls-13" d="M455,43.2c0-.6,0-1.1,0-1.6h1.3v.7h.1c.2-.3.7-.8,1.5-.8s1.8.7,1.8,2.1v2.9h-1.5v-2.7c0-.6-.2-1.1-.8-1.1s-.7.3-.8.6c0,0,0,.2,0,.4v2.8h-1.5v-3.3h0Z"/>
    <path class="cls-13" d="M464.5,46.4c-.3.1-.8.2-1.4.2-1.6,0-2.6-1-2.6-2.5s1-2.6,2.8-2.6.8,0,1.2.2l-.2,1.1c-.2,0-.5-.2-.9-.2-.8,0-1.3.6-1.3,1.4,0,.9.6,1.4,1.3,1.4s.6,0,.9-.2l.2,1.1h0Z"/>
    <path class="cls-13" d="M465.3,39.5h1.5v7.1h-1.5v-7.1Z"/>
    <path class="cls-13" d="M472.7,45c0,.6,0,1.2,0,1.6h-1.3v-.7h-.1c-.2.3-.6.8-1.5.8s-1.7-.6-1.7-2.1v-2.9h1.5v2.6c0,.7.2,1.1.8,1.1s.7-.3.8-.5c0,0,0-.2,0-.3v-2.9h1.5v3.3h0Z"/>
    <path class="cls-13" d="M473.9,45.2c.3.2.9.4,1.3.4s.7-.2.7-.4-.2-.4-.7-.6c-1-.3-1.4-.9-1.4-1.5,0-.9.8-1.6,2-1.6s1.1.1,1.4.3l-.3,1c-.2-.1-.6-.3-1.1-.3s-.6.2-.6.4.2.4.8.6c.9.3,1.3.8,1.3,1.5s-.7,1.6-2.1,1.6-1.2-.1-1.6-.3l.3-1.1h0Z"/>
    <path class="cls-13" d="M479.8,40.3c0,.4-.3.8-.8.8s-.8-.3-.8-.8.3-.8.8-.8.8.3.8.8h0ZM478.2,46.6v-4.9h1.5v4.9h-1.5Z"/>
    <path class="cls-13" d="M485.8,44.1c0,1.8-1.3,2.6-2.6,2.6s-2.5-.9-2.5-2.5,1-2.6,2.6-2.6,2.5,1,2.5,2.5h0ZM482.3,44.1c0,.8.4,1.5,1,1.5s1-.6,1-1.5-.3-1.5-1-1.5-1,.8-1,1.5Z"/>
    <path class="cls-13" d="M486.8,43.2c0-.6,0-1.1,0-1.6h1.3v.7h.1c.2-.3.7-.8,1.5-.8s1.8.7,1.8,2.1v2.9h-1.5v-2.7c0-.6-.2-1.1-.8-1.1s-.7.3-.8.6c0,0,0,.2,0,.4v2.8h-1.5v-3.3h0Z"/>
    <path class="cls-13" d="M498.3,46.4c-.3.1-.8.2-1.4.2-1.6,0-2.6-1-2.6-2.5s1-2.6,2.8-2.6.8,0,1.2.2l-.2,1.1c-.2,0-.5-.2-.9-.2-.8,0-1.3.6-1.3,1.4,0,.9.6,1.4,1.3,1.4s.6,0,.9-.2l.2,1.1h0Z"/>
    <path class="cls-13" d="M499.1,43.3c0-.7,0-1.2,0-1.6h1.3v.9h.1c.2-.7.9-1,1.3-1s.2,0,.3,0v1.4c-.1,0-.2,0-.4,0-.6,0-.9.3-1,.8,0,0,0,.2,0,.3v2.5h-1.5v-3.3h0Z"/>
    <path class="cls-13" d="M504.5,40.3c0,.4-.3.8-.8.8s-.8-.3-.8-.8.3-.8.8-.8.8.3.8.8h0ZM502.9,46.6v-4.9h1.5v4.9h-1.5Z"/>
    <path class="cls-13" d="M507.4,40.3v1.4h1.1v1.1h-1.1v1.8c0,.6.1.9.6.9s.4,0,.5,0v1.2c-.2,0-.5.1-1,.1s-.9-.2-1.1-.4c-.3-.3-.4-.8-.4-1.5v-2h-.6v-1.1h.6v-1l1.5-.3h0Z"/>
    <path class="cls-13" d="M510.5,44.6c0,.6.7.9,1.4.9s.9,0,1.4-.2l.2,1c-.5.2-1.1.3-1.8.3-1.7,0-2.6-1-2.6-2.5s.8-2.6,2.5-2.6,2.2,1.2,2.2,2.4,0,.5,0,.6h-3.2ZM512.2,43.6c0-.4-.2-1-.9-1s-.9.6-1,1h1.8Z"/>
    <path class="cls-13" d="M514.6,43.3c0-.7,0-1.2,0-1.6h1.3v.9h0c.2-.7.8-1,1.3-1s.2,0,.3,0v1.4c-.1,0-.2,0-.4,0-.6,0-.9.3-1,.8,0,0,0,.2,0,.3v2.5h-1.5v-3.3h0Z"/>
    <path class="cls-13" d="M519.9,40.3c0,.4-.3.8-.8.8s-.8-.3-.8-.8.3-.8.8-.8.8.3.8.8h0ZM518.3,46.6v-4.9h1.5v4.9h-1.5Z"/>
    <path class="cls-13" d="M523.9,46.6v-.5h-.1c-.3.4-.8.6-1.4.6-1,0-1.6-.7-1.6-1.5,0-1.3,1.1-1.9,2.9-1.9h0c0-.3-.1-.7-.9-.7s-1,.2-1.3.4l-.3-1c.3-.2,1-.4,1.9-.4,1.6,0,2.1,1,2.1,2.1v1.7c0,.5,0,.9,0,1.2h-1.4,0ZM523.7,44.3c-.8,0-1.4.2-1.4.8s.3.6.6.6.7-.2.8-.6c0,0,0-.2,0-.3v-.5h0Z"/>
    <path class="cls-13" d="M526.3,42.5c0-.5.4-.9.9-.9s.9.4.9.9c0,.5-.3.9-.9.9s-.9-.4-.9-.9ZM526.3,45.8c0-.5.4-.9.9-.9s.9.4.9.9c0,.5-.3.9-.9.9s-.9-.4-.9-.9Z"/>
    <path class="cls-13" d="M444.8,63.8v6.7h-.9v-6.7h.9Z"/>
    <path class="cls-13" d="M446.4,67c0-.5,0-.9,0-1.3h.8v.8h0c.2-.4.8-.9,1.6-.9s1.7.4,1.7,2.1v2.9h-.9v-2.8c0-.8-.3-1.4-1.1-1.4s-1,.4-1.2.9c0,.1,0,.3,0,.4v2.9h-.9v-3.5h0s0,0,0,0Z"/>
    <path class="cls-13" d="M453,64.3v1.4h1.3v.7h-1.3v2.6c0,.6.2.9.7.9s.4,0,.5,0v.7c-.1,0-.4.1-.8.1s-.7-.1-1-.4c-.2-.3-.3-.7-.3-1.3v-2.6h-.8v-.7h.8v-1.2l.9-.2Z"/>
    <path class="cls-13" d="M455.2,67.2c0-.6,0-1.1,0-1.5h.8v.9h0c.2-.7.8-1.1,1.4-1.1s.2,0,.2,0v.8c0,0-.2,0-.3,0-.6,0-1.1.5-1.2,1.1,0,.1,0,.3,0,.4v2.6h-.9v-3.3h0Z"/>
    <path class="cls-13" d="M462.8,68.1c0,1.8-1.2,2.6-2.4,2.6s-2.3-1-2.3-2.5,1.1-2.6,2.4-2.6,2.3,1,2.3,2.5h0ZM458.9,68.2c0,1.1.6,1.9,1.5,1.9s1.5-.8,1.5-1.9-.4-1.8-1.5-1.8-1.5,1-1.5,1.9h0Z"/>
    <path class="cls-13" d="M468,63.5v5.8c0,.4,0,.9,0,1.2h-.8v-.8h0c-.3.5-.9.9-1.6.9-1.2,0-2.1-1-2.1-2.5s1-2.6,2.2-2.6,1.2.3,1.5.7h0v-2.9h.9ZM467.2,67.7c0-.1,0-.3,0-.4-.1-.6-.6-1-1.3-1s-1.5.8-1.5,1.9.5,1.8,1.4,1.8,1.1-.4,1.3-1.1c0-.1,0-.2,0-.4v-.8h0Z"/>
    <path class="cls-13" d="M473.6,69.2c0,.5,0,.9,0,1.3h-.8v-.8h0c-.2.4-.7.9-1.6.9s-1.7-.4-1.7-2.1v-2.8h.9v2.7c0,.9.3,1.6,1.1,1.6s1-.4,1.2-.8c0-.1,0-.3,0-.4v-3h.9v3.5s0,0,0,0Z"/>
    <path class="cls-13" d="M478.5,70.4c-.2.1-.7.3-1.4.3-1.5,0-2.4-1-2.4-2.5s1-2.6,2.6-2.6,1,.1,1.2.3l-.2.7c-.2-.1-.5-.2-1-.2-1.1,0-1.7.8-1.7,1.8s.7,1.8,1.7,1.8.8-.1,1.1-.2v.7h.2Z"/>
    <path class="cls-13" d="M479.9,68.3c0,1.2.8,1.7,1.6,1.7s1-.1,1.3-.2v.6c-.2.1-.7.3-1.5.3-1.5,0-2.4-1-2.4-2.4s.9-2.6,2.3-2.6,2,1.4,2,2.3,0,.3,0,.4h-3.4,0ZM482.5,67.7c0-.6-.2-1.4-1.2-1.4s-1.3.8-1.4,1.4h2.6Z"/>
    <path class="cls-13" d="M484.3,69.7c.3.2.7.3,1.2.3.6,0,.9-.3.9-.7s-.3-.6-.9-.9c-.9-.3-1.3-.8-1.3-1.4s.6-1.4,1.7-1.4.9.1,1.2.3l-.2.6c-.2-.1-.5-.3-1-.3s-.8.3-.8.7.3.6.9.8c.8.3,1.3.7,1.3,1.4s-.7,1.5-1.8,1.5-1-.1-1.4-.3l.2-.7h0Z"/>
    <path class="cls-13" d="M493.2,70.6v-.6h-.1c-.3.4-.8.7-1.5.7-1,0-1.5-.7-1.5-1.4,0-1.2,1-1.8,2.9-1.8h0c0-.5-.1-1.2-1.1-1.2-.5,0-.9.1-1.3.4l-.2-.6c.4-.3,1-.4,1.6-.4,1.5,0,1.8,1,1.8,2v1.8c0,.4,0,.8,0,1.2h-.8,0s0,0,0,0ZM493.1,68.1c-1,0-2,.2-2,1.1s.4.8.8.8c.6,0,1-.4,1.2-.8,0,0,0-.2,0-.3v-.8h0Z"/>
    <path class="cls-13" d="M497.2,70.6v-.5l.7-.7c1.7-1.6,2.4-2.4,2.4-3.4,0-.7-.3-1.3-1.3-1.3s-1.1.3-1.4.6l-.3-.6c.5-.4,1.1-.7,1.8-.7,1.4,0,2,1,2,1.9s-.9,2.2-2.2,3.5l-.5.5h0s2.9,0,2.9,0v.7h-4.2Z"/>
    <path class="cls-13" d="M502.6,63.9c.5,0,1.2-.2,1.9-.2,1.2,0,2.1.3,2.7.8.6.5,1,1.3,1,2.4s-.3,2-1,2.6c-.6.6-1.7,1-3,1s-1.1,0-1.6,0v-6.6h0ZM503.5,69.9c.2,0,.5,0,.9,0,1.9,0,2.9-1,2.9-2.9,0-1.6-.9-2.6-2.7-2.6s-.8,0-1,0v5.3h0Z"/>
    <path class="cls-13" d="M511.4,63.5h.9v7.1h-.9v-7.1Z"/>
    <path class="cls-13" d="M516.4,70.6v-.6h-.1c-.3.4-.8.7-1.5.7-1,0-1.5-.7-1.5-1.4,0-1.2,1-1.8,2.9-1.8h0c0-.5-.1-1.2-1.1-1.2-.5,0-.9.1-1.3.4l-.2-.6c.4-.3,1-.4,1.6-.4,1.5,0,1.8,1,1.8,2v1.8c0,.4,0,.8,0,1.2h-.8,0s0,0,0,0ZM516.3,68.1c-1,0-2,.2-2,1.1s.4.8.8.8c.6,0,1-.4,1.2-.8,0,0,0-.2,0-.3v-.8h0Z"/>
    <path class="cls-13" d="M518.8,65.7l1.1,2.9c.1.3.2.7.3,1h0c0-.3.2-.7.3-1l1-2.8h.9l-1.3,3.4c-.6,1.7-1.1,2.5-1.7,3-.4.4-.9.5-1.1.6l-.2-.7c.2,0,.5-.2.8-.4.2-.2.5-.5.7-1,0,0,0-.2,0-.2s0-.1,0-.2l-1.8-4.5h1,0Z"/>
    <path class="cls-13" d="M527.5,68.1c0,1.8-1.2,2.6-2.4,2.6s-2.3-1-2.3-2.5,1.1-2.6,2.4-2.6,2.3,1,2.3,2.5c0,0,0,0,0,0ZM523.6,68.2c0,1.1.6,1.9,1.5,1.9s1.5-.8,1.5-1.9-.4-1.8-1.5-1.8-1.5,1-1.5,1.9h0Z"/>
    <path class="cls-13" d="M532.6,69.2c0,.5,0,.9,0,1.3h-.8v-.8h0c-.2.4-.7.9-1.6.9s-1.7-.4-1.7-2.1v-2.8h.9v2.7c0,.9.3,1.6,1.1,1.6s1-.4,1.2-.8c0-.1,0-.3,0-.4v-3h.9v3.5s0,0,0,0Z"/>
    <path class="cls-13" d="M535.2,64.3v1.4h1.3v.7h-1.3v2.6c0,.6.2.9.7.9s.4,0,.5,0v.7c-.1,0-.4.1-.8.1s-.7-.1-1-.4c-.2-.3-.3-.7-.3-1.3v-2.6h-.8v-.7h.8v-1.2l.9-.2h0Z"/>
    <path class="cls-13" d="M472.8,82.6v-.6h-.1c-.3.4-.8.7-1.5.7-1,0-1.5-.7-1.5-1.4,0-1.2,1-1.8,2.9-1.8h0c0-.5-.1-1.2-1.1-1.2-.5,0-.9.1-1.3.4l-.2-.6c.4-.3,1-.4,1.6-.4,1.5,0,1.8,1,1.8,2v1.8c0,.4,0,.8,0,1.2h-.8,0s0,0,0,0ZM472.6,80.1c-1,0-2,.2-2,1.1s.4.8.8.8c.6,0,1-.4,1.2-.8,0,0,0-.2,0-.3v-.8h0Z"/>
    <path class="cls-13" d="M474.9,75.5h.9v7.1h-.9v-7.1Z"/>
    <path class="cls-13" d="M481.4,77.7c0,.3,0,.7,0,1.3v2.8c0,1.1-.2,1.8-.7,2.2-.5.4-1.1.6-1.8.6s-1.2-.1-1.6-.4l.2-.7c.3.2.8.4,1.4.4.9,0,1.6-.5,1.6-1.7v-.5h0c-.3.4-.8.8-1.5.8-1.2,0-2.1-1-2.1-2.4s1.1-2.6,2.2-2.6,1.3.4,1.5.8h0v-.7h.8s0,0,0,0ZM480.5,79.6c0-.1,0-.3,0-.4-.2-.5-.6-.9-1.2-.9s-1.4.7-1.4,1.8.5,1.7,1.4,1.7,1-.3,1.2-.9c0-.1,0-.3,0-.5v-.9h0Z"/>
    <path class="cls-13" d="M487.2,80.1c0,1.8-1.2,2.6-2.4,2.6s-2.3-1-2.3-2.5,1.1-2.6,2.4-2.6,2.3,1,2.3,2.5h0ZM483.4,80.2c0,1.1.6,1.9,1.5,1.9s1.5-.8,1.5-1.9-.4-1.8-1.5-1.8-1.5,1-1.5,1.9h0Z"/>
    <path class="cls-13" d="M488.4,79.2c0-.6,0-1.1,0-1.5h.8v.9h0c.2-.7.8-1.1,1.4-1.1s.2,0,.2,0v.8c0,0-.2,0-.3,0-.6,0-1.1.5-1.2,1.1,0,.1,0,.3,0,.4v2.6h-.9v-3.3h0Z"/>
    <path class="cls-13" d="M492.6,76.4c0,.3-.2.6-.6.6s-.5-.2-.5-.6.2-.6.5-.6.5.2.5.6ZM491.7,82.6v-4.8h.9v4.8h-.9Z"/>
    <path class="cls-13" d="M495.1,76.3v1.4h1.3v.7h-1.3v2.6c0,.6.2.9.7.9s.4,0,.5,0v.7c-.1,0-.4.1-.8.1s-.7-.1-1-.4c-.2-.3-.3-.7-.3-1.3v-2.6h-.8v-.7h.8v-1.2l.9-.2Z"/>
    <path class="cls-13" d="M497.3,75.5h.9v3h0c.1-.2.4-.5.6-.6.3-.2.6-.2.9-.2.6,0,1.7.4,1.7,2.1v2.9h-.9v-2.8c0-.8-.3-1.4-1.1-1.4s-1,.4-1.2.9c0,.1,0,.3,0,.4v2.9h-.9v-7.1h0Z"/>
    <path class="cls-13" d="M502.9,79c0-.5,0-.9,0-1.3h.8v.8h0c.3-.5.7-.9,1.5-.9s1.2.4,1.4,1h0c.1-.3.3-.5.5-.6.3-.2.6-.3,1.1-.3.6,0,1.6.4,1.6,2.1v2.8h-.9v-2.7c0-.9-.3-1.5-1-1.5s-.9.4-1,.8c0,.1,0,.3,0,.4v3h-.9v-2.9c0-.8-.3-1.3-1-1.3s-1,.4-1.1.9c0,.1,0,.3,0,.4v2.9h-.9v-3.5h0Z"/>
    <path class="cls-13" d="M490.6,104.1c0,1.8-1.2,2.6-2.4,2.6s-2.3-1-2.3-2.5,1.1-2.6,2.4-2.6,2.3,1,2.3,2.5h0ZM486.8,104.2c0,1.1.6,1.9,1.5,1.9s1.5-.8,1.5-1.9-.4-1.8-1.5-1.8-1.5,1-1.5,1.9h0Z"/>
    <path class="cls-13" d="M491.8,103.2c0-.6,0-1.1,0-1.5h.8v.9h0c.2-.7.8-1.1,1.4-1.1s.2,0,.2,0v.8c0,0-.2,0-.3,0-.6,0-1.1.5-1.2,1.1,0,.1,0,.3,0,.4v2.6h-.9v-3.3h0Z"/>
    <path class="cls-13" d="M451.9,130.3c-.3.2-1,.3-1.8.3-1.9,0-3.3-1.2-3.3-3.4s1.4-3.5,3.5-3.5,1.4.2,1.6.3l-.2.7c-.3-.2-.8-.3-1.4-.3-1.6,0-2.6,1-2.6,2.8s1,2.7,2.6,2.7,1.1-.1,1.4-.3l.2.7h0Z"/>
    <path class="cls-13" d="M452.9,123.5h.9v3h0c.1-.2.4-.5.6-.6.3-.2.6-.2.9-.2.6,0,1.7.4,1.7,2.1v2.9h-.9v-2.8c0-.8-.3-1.4-1.1-1.4s-1,.4-1.2.9c0,.1,0,.3,0,.4v2.9h-.9v-7.1h0Z"/>
    <path class="cls-13" d="M461.1,130.6v-.6h-.1c-.3.4-.8.7-1.5.7-1,0-1.5-.7-1.5-1.4,0-1.2,1-1.8,2.9-1.8h0c0-.5-.1-1.2-1.1-1.2-.5,0-.9.1-1.3.4l-.2-.6c.4-.3,1-.4,1.6-.4,1.5,0,1.8,1,1.8,2v1.8c0,.4,0,.8,0,1.2h-.8,0s0,0,0,0ZM461,128.1c-1,0-2,.1-2,1.1s.4.8.8.8c.6,0,1-.4,1.2-.8,0,0,0-.2,0-.3v-.8h0Z"/>
    <path class="cls-13" d="M463.3,127c0-.5,0-.9,0-1.3h.8v.8h0c.2-.4.8-.9,1.6-.9s1.7.4,1.7,2.1v2.9h-.9v-2.8c0-.8-.3-1.4-1.1-1.4s-1,.4-1.2.9c0,.1,0,.3,0,.4v2.9h-.9v-3.5h0Z"/>
    <path class="cls-13" d="M473,125.7c0,.3,0,.7,0,1.3v2.8c0,1.1-.2,1.8-.7,2.2-.5.4-1.1.6-1.8.6s-1.2-.1-1.6-.4l.2-.7c.3.2.8.4,1.4.4.9,0,1.6-.5,1.6-1.7v-.5h0c-.3.4-.8.8-1.5.8-1.2,0-2.1-1-2.1-2.4s1.1-2.6,2.2-2.6,1.3.4,1.5.8h0v-.7h.8,0ZM472.1,127.6c0-.1,0-.3,0-.4-.2-.5-.6-.9-1.2-.9s-1.4.7-1.4,1.8.5,1.7,1.4,1.7,1-.3,1.2-.9c0-.1,0-.3,0-.5v-.9h0Z"/>
    <path class="cls-13" d="M474.9,128.3c0,1.2.8,1.7,1.6,1.7s1-.1,1.3-.2v.6c-.2.1-.7.3-1.5.3-1.5,0-2.4-1-2.4-2.4s.9-2.6,2.3-2.6,2,1.4,2,2.3,0,.3,0,.4h-3.4,0ZM477.5,127.7c0-.6-.2-1.4-1.2-1.4s-1.3.8-1.4,1.4h2.6Z"/>
    <path class="cls-13" d="M479.3,129.7c.3.2.7.3,1.2.3.6,0,.9-.3.9-.7s-.3-.6-.9-.9c-.9-.3-1.3-.8-1.3-1.4,0-.8.6-1.4,1.7-1.4s.9.1,1.2.3l-.2.6c-.2-.1-.5-.3-1-.3s-.8.3-.8.7.3.6.9.8c.8.3,1.3.7,1.3,1.5s-.7,1.5-1.8,1.5-1-.1-1.4-.3l.2-.7h0Z"/>
    <path class="cls-13" d="M485.5,127.3c0-.6,0-1.1,0-1.6h.8v.8h0c.4-.6.9-.9,1.7-.9,1.2,0,2,1,2,2.5s-1.1,2.6-2.2,2.6-1.2-.3-1.5-.8h0v2.6h-.9v-5.2h0ZM486.4,128.6c0,.1,0,.2,0,.4.2.6.7,1,1.3,1,.9,0,1.5-.8,1.5-1.9s-.5-1.8-1.4-1.8-1.2.4-1.3,1.1c0,.1,0,.2,0,.4v.8h0Z"/>
    <path class="cls-13" d="M495.6,128.1c0,1.8-1.2,2.6-2.4,2.6s-2.3-1-2.3-2.5,1.1-2.6,2.4-2.6,2.3,1,2.3,2.5h0ZM491.8,128.2c0,1.1.6,1.9,1.5,1.9s1.5-.8,1.5-1.9-.4-1.8-1.5-1.8-1.5,1-1.5,1.9h0Z"/>
    <path class="cls-13" d="M496.6,129.7c.3.2.7.3,1.2.3.6,0,.9-.3.9-.7s-.3-.6-.9-.9c-.9-.3-1.3-.8-1.3-1.4,0-.8.6-1.4,1.7-1.4s.9.1,1.2.3l-.2.6c-.2-.1-.5-.3-1-.3s-.8.3-.8.7.3.6.9.8c.8.3,1.3.7,1.3,1.5s-.7,1.5-1.8,1.5-1-.1-1.4-.3l.2-.7h0Z"/>
    <path class="cls-13" d="M501.6,124.4c0,.3-.2.6-.6.6s-.5-.2-.5-.6.2-.6.5-.6.5.2.5.6ZM500.6,130.6v-4.8h.9v4.8h-.9Z"/>
    <path class="cls-13" d="M504,124.3v1.4h1.3v.7h-1.3v2.6c0,.6.2.9.7.9s.4,0,.5,0v.7c-.1,0-.4.1-.8.1s-.7-.1-1-.4c-.2-.3-.3-.7-.3-1.3v-2.6h-.8v-.7h.8v-1.2s.9-.2.9-.2Z"/>
    <path class="cls-13" d="M507.3,124.4c0,.3-.2.6-.6.6s-.5-.2-.5-.6.2-.6.5-.6.5.2.5.6ZM506.3,130.6v-4.8h.9v4.8h-.9Z"/>
    <path class="cls-13" d="M513,128.1c0,1.8-1.2,2.6-2.4,2.6s-2.3-1-2.3-2.5,1.1-2.6,2.4-2.6,2.3,1,2.3,2.5h0ZM509.2,128.2c0,1.1.6,1.9,1.5,1.9s1.5-.8,1.5-1.9-.4-1.8-1.5-1.8-1.5,1-1.5,1.9h0Z"/>
    <path class="cls-13" d="M514.1,127c0-.5,0-.9,0-1.3h.8v.8h0c.2-.4.8-.9,1.6-.9s1.7.4,1.7,2.1v2.9h-.9v-2.8c0-.8-.3-1.4-1.1-1.4s-1,.4-1.2.9c0,.1,0,.3,0,.4v2.9h-.9v-3.5h0s0,0,0,0Z"/>
    <path class="cls-13" d="M519.6,129.7c.3.2.7.3,1.2.3.6,0,.9-.3.9-.7s-.3-.6-.9-.9c-.9-.3-1.3-.8-1.3-1.4,0-.8.6-1.4,1.7-1.4s.9.1,1.2.3l-.2.6c-.2-.1-.5-.3-1-.3s-.8.3-.8.7.3.6.9.8c.8.3,1.3.7,1.3,1.5s-.7,1.5-1.8,1.5-1-.1-1.4-.3l.2-.7h0Z"/>
    <path class="cls-13" d="M530.1,128.1c0,1.8-1.2,2.6-2.4,2.6s-2.3-1-2.3-2.5,1.1-2.6,2.4-2.6,2.3,1,2.3,2.5h0ZM526.3,128.2c0,1.1.6,1.9,1.5,1.9s1.5-.8,1.5-1.9-.4-1.8-1.5-1.8-1.5,1-1.5,1.9h0Z"/>
    <path class="cls-13" d="M531.3,130.6v-4.2h-.7v-.7h.7v-.2c0-.7.2-1.3.6-1.7.3-.3.8-.4,1.2-.4s.6,0,.8.1v.7c-.2,0-.4-.1-.7-.1-.7,0-.9.7-.9,1.4v.3h1.2v.7h-1.2v4.2h-.9,0Z"/>
    <path class="cls-13" d="M445.7,139c0-.5,0-.9,0-1.3h.8v.8h0c.2-.4.8-.9,1.6-.9s1.7.4,1.7,2.1v2.9h-.9v-2.8c0-.8-.3-1.4-1.1-1.4s-1,.4-1.2.9c0,.1,0,.3,0,.4v2.9h-.9v-3.5h0Z"/>
    <path class="cls-13" d="M455.6,140.1c0,1.8-1.2,2.6-2.4,2.6s-2.3-1-2.3-2.5,1.1-2.6,2.4-2.6,2.3,1,2.3,2.5h0ZM451.8,140.2c0,1.1.6,1.9,1.5,1.9s1.5-.8,1.5-1.9-.4-1.9-1.5-1.9-1.5,1-1.5,1.9h0Z"/>
    <path class="cls-13" d="M460.9,135.5v5.9c0,.4,0,.9,0,1.2h-.8v-.8h0c-.3.5-.9.9-1.6.9-1.2,0-2.1-1-2.1-2.5s1-2.6,2.2-2.6,1.2.4,1.5.7h0v-2.9h.9ZM460,139.7c0-.1,0-.3,0-.4-.1-.6-.6-1-1.3-1s-1.5.8-1.5,1.9.5,1.8,1.4,1.8,1.1-.4,1.3-1.1c0-.1,0-.2,0-.4v-.8h0Z"/>
    <path class="cls-13" d="M462.9,140.3c0,1.2.8,1.7,1.6,1.7s1-.1,1.3-.2v.6c-.2.1-.7.3-1.5.3-1.5,0-2.4-1-2.4-2.4s.9-2.6,2.3-2.6,2,1.4,2,2.3,0,.3,0,.4h-3.4,0ZM465.4,139.7c0-.6-.2-1.4-1.2-1.4s-1.3.8-1.4,1.4h2.6Z"/>
    <path class="cls-13" d="M467.2,141.7c.3.2.7.3,1.2.3.6,0,.9-.3.9-.7s-.3-.6-.9-.9c-.9-.3-1.3-.8-1.3-1.4,0-.8.6-1.4,1.7-1.4s.9.1,1.2.3l-.2.6c-.2-.1-.5-.3-1-.3s-.8.3-.8.7.3.6.9.8c.8.3,1.3.7,1.3,1.4s-.7,1.5-1.8,1.5-1-.1-1.4-.3l.2-.7h0Z"/>
    <path class="cls-13" d="M470.6,143.8c.2-.6.5-1.7.6-2.4h1c-.2.8-.7,1.9-1,2.3h-.6q0,0,0,0Z"/>
    <path class="cls-13" d="M475.9,140.3c0,1.2.8,1.7,1.6,1.7s1-.1,1.3-.2v.6c-.2.1-.7.3-1.5.3-1.5,0-2.4-1-2.4-2.4s.9-2.6,2.3-2.6,2,1.4,2,2.3,0,.3,0,.4h-3.4,0ZM478.5,139.7c0-.6-.2-1.4-1.2-1.4s-1.3.8-1.4,1.4h2.6Z"/>
    <path class="cls-13" d="M484.6,135.5v5.9c0,.4,0,.9,0,1.2h-.8v-.8h0c-.3.5-.9.9-1.6.9-1.2,0-2.1-1-2.1-2.5s1-2.6,2.2-2.6,1.2.4,1.5.7h0v-2.9h.9,0ZM483.7,139.7c0-.1,0-.3,0-.4-.1-.6-.6-1-1.3-1s-1.5.8-1.5,1.9.5,1.8,1.4,1.8,1.1-.4,1.3-1.1c0-.1,0-.2,0-.4v-.8h0Z"/>
    <path class="cls-13" d="M490.2,137.7c0,.3,0,.7,0,1.3v2.8c0,1.1-.2,1.8-.7,2.2-.5.4-1.1.6-1.8.6s-1.2-.1-1.6-.4l.2-.7c.3.2.8.4,1.4.4.9,0,1.6-.5,1.6-1.7v-.5h0c-.3.4-.8.8-1.5.8-1.2,0-2.1-1-2.1-2.4s1.1-2.6,2.2-2.6,1.3.4,1.5.8h0v-.7h.8,0ZM489.3,139.6c0-.1,0-.3,0-.4-.2-.5-.6-.9-1.2-.9s-1.4.7-1.4,1.8.5,1.7,1.4,1.7,1-.3,1.2-.9c0-.1,0-.3,0-.5v-.9h0Z"/>
    <path class="cls-13" d="M492.1,140.3c0,1.2.8,1.7,1.6,1.7s1-.1,1.3-.2v.6c-.2.1-.7.3-1.5.3-1.5,0-2.4-1-2.4-2.4s.9-2.6,2.3-2.6,2,1.4,2,2.3,0,.3,0,.4h-3.4,0ZM494.7,139.7c0-.6-.2-1.4-1.2-1.4s-1.3.8-1.4,1.4h2.6Z"/>
    <path class="cls-13" d="M496.5,141.7c.3.2.7.3,1.2.3.6,0,.9-.3.9-.7s-.3-.6-.9-.9c-.9-.3-1.3-.8-1.3-1.4s.6-1.4,1.7-1.4.9.1,1.2.3l-.2.6c-.2-.1-.5-.3-1-.3s-.8.3-.8.7.3.6.9.8c.8.3,1.3.7,1.3,1.4s-.7,1.5-1.8,1.5-1-.1-1.4-.3l.2-.7h0Z"/>
    <path class="cls-13" d="M499.9,143.8c.2-.6.5-1.7.6-2.4h1c-.2.8-.7,1.9-1,2.3h-.6q0,0,0,0Z"/>
    <path class="cls-13" d="M509.1,140.1c0,1.8-1.2,2.6-2.4,2.6s-2.3-1-2.3-2.5,1.1-2.6,2.4-2.6,2.3,1,2.3,2.5h0ZM505.2,140.2c0,1.1.6,1.9,1.5,1.9s1.5-.8,1.5-1.9-.4-1.9-1.5-1.9-1.5,1-1.5,1.9h0Z"/>
    <path class="cls-13" d="M510.2,139.2c0-.6,0-1.1,0-1.5h.8v.9h0c.2-.6.8-1.1,1.3-1.1s.2,0,.2,0v.8c0,0-.2,0-.3,0-.6,0-1.1.5-1.2,1.1,0,.1,0,.3,0,.4v2.6h-.9v-3.3h0Z"/>
    <path class="cls-13" d="M515.5,142.6c0-.3,0-.8,0-1.2v-5.9h.9v3h0c.3-.5.9-.9,1.7-.9,1.2,0,2,1,2,2.5s-1.1,2.6-2.2,2.6-1.2-.3-1.6-.9h0v.8h-.8ZM516.4,140.6c0,.1,0,.2,0,.3.2.6.7,1,1.3,1,.9,0,1.5-.8,1.5-1.9s-.5-1.8-1.4-1.8-1.2.4-1.3,1.1c0,.1,0,.2,0,.4v.9h0Z"/>
    <path class="cls-13" d="M525.7,140.1c0,1.8-1.2,2.6-2.4,2.6s-2.3-1-2.3-2.5,1.1-2.6,2.4-2.6,2.3,1,2.3,2.5h0ZM521.8,140.2c0,1.1.6,1.9,1.5,1.9s1.5-.8,1.5-1.9-.4-1.9-1.5-1.9-1.5,1-1.5,1.9h0Z"/>
    <path class="cls-13" d="M527.8,136.3v1.4h1.3v.7h-1.3v2.6c0,.6.2.9.7.9s.4,0,.5,0v.7c-.1,0-.4.1-.8.1s-.7-.1-1-.4c-.2-.3-.3-.7-.3-1.3v-2.6h-.8v-.7h.8v-1.2l.9-.2h0Z"/>
    <path class="cls-13" d="M530.1,135.5h.9v3h0c.2-.2.4-.5.6-.6.3-.1.6-.2.9-.2.7,0,1.7.4,1.7,2.1v2.9h-.9v-2.8c0-.8-.3-1.4-1.1-1.4s-1,.4-1.2.9c0,.1,0,.3,0,.4v2.9h-.9v-7.1h0,0Z"/>
    <path class="cls-13" d="M490.6,164.1c0,1.8-1.2,2.6-2.4,2.6s-2.3-1-2.3-2.5,1.1-2.6,2.4-2.6,2.3,1,2.3,2.5h0ZM486.8,164.2c0,1.1.6,1.9,1.5,1.9s1.5-.8,1.5-1.9-.4-1.9-1.5-1.9-1.5,1-1.5,1.9h0Z"/>
    <path class="cls-13" d="M491.8,163.2c0-.6,0-1.1,0-1.5h.8v.9h0c.2-.6.8-1.1,1.4-1.1s.2,0,.2,0v.8c0,0-.2,0-.3,0-.6,0-1.1.5-1.2,1.1,0,.1,0,.3,0,.4v2.6h-.9v-3.3h0Z"/>
    <path class="cls-13" d="M455.4,190.3c-.3.2-1,.3-1.8.3-1.9,0-3.3-1.2-3.3-3.4s1.4-3.5,3.5-3.5,1.4.2,1.6.3l-.2.7c-.3-.2-.8-.3-1.4-.3-1.6,0-2.6,1-2.6,2.8s1,2.7,2.6,2.7,1.1-.1,1.4-.3l.2.7h0Z"/>
    <path class="cls-13" d="M460.7,188.1c0,1.8-1.2,2.6-2.4,2.6s-2.3-1-2.3-2.5,1.1-2.6,2.4-2.6,2.3,1,2.3,2.5h0ZM456.9,188.2c0,1.1.6,1.9,1.5,1.9s1.5-.8,1.5-1.9-.4-1.9-1.5-1.9-1.5,1-1.5,1.9h0Z"/>
    <path class="cls-13" d="M461.8,187c0-.5,0-.9,0-1.3h.8v.8h0c.3-.5.7-.9,1.5-.9s1.2.4,1.4,1h0c.1-.3.3-.5.5-.6.3-.2.6-.3,1.1-.3.6,0,1.6.4,1.6,2.1v2.9h-.9v-2.7c0-.9-.4-1.5-1-1.5s-.9.4-1,.8c0,.1,0,.3,0,.4v3h-.9v-2.9c0-.8-.3-1.3-1-1.3s-1,.4-1.1.9c0,.1,0,.3,0,.4v2.9h-.9v-3.5h0Z"/>
    <path class="cls-13" d="M470.2,187.3c0-.6,0-1.1,0-1.6h.8v.8h0c.4-.6.9-.9,1.7-.9,1.2,0,2,1,2,2.4s-1.1,2.6-2.2,2.6-1.2-.3-1.5-.8h0v2.6h-.9v-5.2h0ZM471,188.6c0,.1,0,.2,0,.4.2.6.7,1,1.3,1,.9,0,1.5-.8,1.5-1.9s-.5-1.8-1.4-1.8-1.2.4-1.3,1.1c0,.1,0,.2,0,.4v.8h0Z"/>
    <path class="cls-13" d="M478.5,190.6v-.6h-.1c-.3.4-.8.7-1.5.7-1,0-1.5-.7-1.5-1.4,0-1.2,1-1.8,2.9-1.8h0c0-.5-.1-1.2-1.1-1.2-.5,0-.9.1-1.3.4l-.2-.6c.4-.3,1-.4,1.6-.4,1.5,0,1.8,1,1.8,2v1.8c0,.4,0,.8,0,1.2h-.8s0,0,0,0ZM478.4,188.1c-1,0-2,.1-2,1.1s.4.8.8.8c.6,0,1-.4,1.2-.8,0,0,0-.2,0-.3v-.8h0Z"/>
    <path class="cls-13" d="M480.7,187.2c0-.6,0-1.1,0-1.5h.8v.9h0c.2-.6.8-1.1,1.4-1.1s.2,0,.2,0v.8c0,0-.2,0-.3,0-.6,0-1.1.5-1.2,1.1,0,.1,0,.3,0,.4v2.6h-.9v-3.3h0Z"/>
    <path class="cls-13" d="M484.4,188.3c0,1.2.8,1.7,1.6,1.7s1-.1,1.3-.2v.6c-.2.1-.7.3-1.5.3-1.5,0-2.4-1-2.4-2.4s.9-2.6,2.3-2.6,2,1.4,2,2.3,0,.3,0,.4h-3.4,0ZM486.9,187.7c0-.6-.2-1.4-1.2-1.4s-1.3.8-1.4,1.4h2.6Z"/>
    <path class="cls-13" d="M488.7,189.7c.3.2.7.3,1.2.3.6,0,.9-.3.9-.7s-.3-.6-.9-.9c-.9-.3-1.3-.8-1.3-1.4s.6-1.4,1.7-1.4.9.1,1.2.3l-.2.6c-.2-.1-.5-.3-1-.3s-.8.3-.8.7.3.6.9.8c.8.3,1.3.7,1.3,1.4s-.7,1.5-1.8,1.5-1-.1-1.4-.3l.2-.7h0Z"/>
    <path class="cls-13" d="M499.1,183.5v5.9c0,.4,0,.9,0,1.2h-.8v-.8h0c-.3.5-.9.9-1.6.9-1.2,0-2.1-1-2.1-2.5s1-2.6,2.2-2.6,1.2.4,1.5.7h0v-2.9h.9ZM498.2,187.7c0-.1,0-.3,0-.4-.1-.6-.6-1-1.3-1s-1.5.8-1.5,1.9.5,1.8,1.4,1.8,1.1-.4,1.3-1.1c0-.1,0-.2,0-.4v-.8h0Z"/>
    <path class="cls-13" d="M501.6,184.4c0,.3-.2.6-.6.6s-.5-.2-.5-.6.2-.6.5-.6.5.2.5.6ZM500.6,190.6v-4.8h.9v4.8h-.9Z"/>
    <path class="cls-13" d="M505.9,190.6v-4.2h-2v4.2h-.9v-4.2h-.7v-.7h.7v-.2c0-.7.2-1.3.5-1.6.3-.3.7-.4,1.2-.4s.5,0,.7.2l-.2.7c-.1,0-.3-.1-.5-.1-.7,0-.9.6-.9,1.4v.2h2v-.2c0-.7.2-1.3.6-1.7.3-.3.8-.4,1.2-.4s.6,0,.8.1v.7c-.2,0-.4-.1-.7-.1-.7,0-.9.7-.9,1.4v.3h1.2v.7h-1.2v4.2h-.9Z"/>
    <path class="cls-13" d="M509.1,188.3c0,1.2.8,1.7,1.6,1.7s1-.1,1.3-.2l.2.6c-.3.1-.8.3-1.6.3-1.5,0-2.4-1-2.4-2.4s.9-2.6,2.3-2.6,2,1.4,2,2.3,0,.3,0,.4h-3.4,0ZM511.7,187.7c0-.6-.2-1.4-1.2-1.4s-1.3.8-1.4,1.4h2.6Z"/>
    <path class="cls-13" d="M513.6,187.2c0-.6,0-1.1,0-1.5h.8v.9h0c.2-.6.8-1.1,1.3-1.1s.2,0,.2,0v.8c0,0-.2,0-.3,0-.6,0-1.1.5-1.2,1.1,0,.1,0,.3,0,.4v2.6h-.9v-3.3h0,0Z"/>
    <path class="cls-13" d="M517.3,188.3c0,1.2.8,1.7,1.7,1.7s1-.1,1.3-.2l.2.6c-.3.1-.8.3-1.6.3-1.5,0-2.4-1-2.4-2.4s.9-2.6,2.3-2.6,2,1.4,2,2.3,0,.3,0,.4h-3.4,0ZM519.9,187.7c0-.6-.2-1.4-1.2-1.4s-1.3.8-1.3,1.4h2.6Z"/>
    <path class="cls-13" d="M521.8,187c0-.5,0-.9,0-1.3h.8v.8h0c.2-.4.8-.9,1.6-.9s1.7.4,1.7,2.1v2.9h-.9v-2.8c0-.8-.3-1.4-1.1-1.4s-1,.4-1.2.9c0,.1,0,.3,0,.4v2.9h-.9v-3.5h0s0,0,0,0Z"/>
    <path class="cls-13" d="M528.4,184.3v1.4h1.3v.7h-1.3v2.6c0,.6.2.9.7.9s.4,0,.5,0v.7c-.1,0-.4.1-.8.1s-.7-.1-1-.4c-.2-.3-.3-.7-.3-1.3v-2.6h-.8v-.7h.8v-1.2l.9-.2h0Z"/>
    <path class="cls-13" d="M470.8,202.6v-.6h-.1c-.3.4-.8.7-1.5.7-1,0-1.5-.7-1.5-1.4,0-1.2,1-1.8,2.9-1.8h0c0-.5-.1-1.2-1.1-1.2-.5,0-.9.1-1.3.4l-.2-.6c.4-.3,1-.4,1.6-.4,1.5,0,1.8,1,1.8,2v1.8c0,.4,0,.8,0,1.2h-.8s0,0,0,0ZM470.6,200.1c-1,0-2,.1-2,1.1s.4.8.8.8c.6,0,1-.4,1.2-.8,0,0,0-.2,0-.3v-.8h0Z"/>
    <path class="cls-13" d="M472.9,195.5h.9v7.1h-.9v-7.1Z"/>
    <path class="cls-13" d="M479.5,197.7c0,.3,0,.7,0,1.3v2.8c0,1.1-.2,1.8-.7,2.2-.5.4-1.1.6-1.8.6s-1.2-.1-1.6-.4l.2-.7c.3.2.8.4,1.4.4.9,0,1.6-.5,1.6-1.7v-.5h0c-.3.4-.8.8-1.5.8-1.2,0-2.1-1-2.1-2.4s1.1-2.6,2.2-2.6,1.3.4,1.5.8h0v-.7h.8,0ZM478.5,199.6c0-.1,0-.3,0-.4-.2-.5-.6-.9-1.2-.9s-1.4.7-1.4,1.8.5,1.7,1.4,1.7,1-.3,1.2-.9c0-.1,0-.3,0-.5v-.9h0Z"/>
    <path class="cls-13" d="M485.3,200.1c0,1.8-1.2,2.6-2.4,2.6s-2.3-1-2.3-2.5,1.1-2.6,2.4-2.6,2.3,1,2.3,2.5h0ZM481.4,200.2c0,1.1.6,1.9,1.5,1.9s1.5-.8,1.5-1.9-.4-1.9-1.5-1.9-1.5,1-1.5,1.9h0Z"/>
    <path class="cls-13" d="M486.4,199.2c0-.6,0-1.1,0-1.5h.8v.9h0c.2-.6.8-1.1,1.4-1.1s.2,0,.2,0v.8c0,0-.2,0-.3,0-.6,0-1.1.5-1.2,1.1,0,.1,0,.3,0,.4v2.6h-.9v-3.3h0Z"/>
    <path class="cls-13" d="M490.7,196.4c0,.3-.2.6-.6.6s-.5-.2-.5-.6.2-.6.5-.6.5.2.5.6ZM489.7,202.6v-4.8h.9v4.8h-.9Z"/>
    <path class="cls-13" d="M493.1,196.3v1.4h1.3v.7h-1.3v2.6c0,.6.2.9.7.9s.4,0,.5,0v.7c-.1,0-.4.1-.8.1s-.7-.1-1-.4c-.2-.3-.3-.7-.3-1.3v-2.6h-.8v-.7h.8v-1.2l.9-.2h0Z"/>
    <path class="cls-13" d="M495.3,195.5h.9v3h0c.1-.2.4-.5.6-.6.3-.1.6-.2.9-.2.6,0,1.7.4,1.7,2.1v2.9h-.9v-2.8c0-.8-.3-1.4-1.1-1.4s-1,.4-1.2.9c0,.1,0,.3,0,.4v2.9h-.9v-7.1h0Z"/>
    <path class="cls-13" d="M500.9,199c0-.5,0-.9,0-1.3h.8v.8h0c.3-.5.7-.9,1.5-.9s1.2.4,1.4,1h0c.1-.3.3-.5.5-.6.3-.2.6-.3,1.1-.3.6,0,1.6.4,1.6,2.1v2.9h-.9v-2.7c0-.9-.3-1.5-1-1.5s-.9.4-1,.8c0,.1,0,.3,0,.4v3h-.9v-2.9c0-.8-.3-1.3-1-1.3s-1,.4-1.1.9c0,.1,0,.3,0,.4v2.9h-.9v-3.5h0Z"/>
    <path class="cls-13" d="M509.1,201.7c.3.2.7.3,1.2.3.6,0,.9-.3.9-.7s-.3-.6-.9-.9c-.9-.3-1.3-.8-1.3-1.4,0-.8.6-1.4,1.7-1.4s.9.1,1.2.3l-.2.6c-.2-.1-.5-.3-1-.3s-.8.3-.8.7.3.6.9.8c.8.3,1.3.7,1.3,1.4s-.7,1.5-1.8,1.5-1-.1-1.4-.3l.2-.7h0Z"/>
    <rect class="cls-12" x="602.4" y="189" width="80.4" height="48.7" rx="12.4" ry="12.4"/>
    <path class="cls-13" d="M609.3,198.3c.5,0,1.2-.1,1.8-.1,1.2,0,2.1.3,2.7.9.6.5,1,1.3,1,2.4s-.3,2-1,2.6c-.6.6-1.7,1-3,1s-1.1,0-1.6,0v-6.6h0ZM610.2,204.2c.2,0,.5,0,.9,0,1.9,0,2.9-1,2.9-2.9s-.9-2.6-2.7-2.6-.8,0-1,0v5.3h0Z"/>
    <path class="cls-13" d="M620.4,202.5c0,1.8-1.2,2.6-2.4,2.6s-2.3-1-2.3-2.5,1.1-2.6,2.4-2.6,2.3,1,2.3,2.5h0ZM616.6,202.5c0,1.1.6,1.9,1.5,1.9s1.5-.8,1.5-1.9-.4-1.9-1.5-1.9-1.5,1-1.5,1.9h0Z"/>
    <path class="cls-13" d="M622,202.7c0,1.2.8,1.7,1.7,1.7s1-.1,1.3-.2l.2.6c-.3.1-.8.3-1.6.3-1.5,0-2.4-1-2.4-2.4s.9-2.6,2.3-2.6,2,1.4,2,2.3,0,.3,0,.4h-3.4ZM624.6,202c0-.6-.2-1.4-1.2-1.4s-1.3.8-1.3,1.4h2.6Z"/>
    <path class="cls-13" d="M626.4,204c.3.2.7.3,1.2.3.6,0,.9-.3.9-.7s-.3-.6-.9-.9c-.9-.3-1.3-.8-1.3-1.4,0-.8.6-1.4,1.7-1.4s.9.1,1.2.3l-.2.6c-.2-.1-.5-.3-1-.3s-.8.3-.8.7.3.6.9.8c.8.3,1.3.7,1.3,1.4s-.7,1.5-1.8,1.5-1-.1-1.4-.3l.2-.7h0Z"/>
    <path class="cls-13" d="M633.6,198.7c0,.3-.2.6-.6.6s-.5-.2-.5-.6.2-.6.5-.6.5.2.5.6h0ZM632.6,204.9v-4.8h.9v4.8h-.9Z"/>
    <path class="cls-13" d="M636,198.7v1.4h1.3v.7h-1.3v2.6c0,.6.2.9.7.9s.4,0,.5,0v.7c-.1,0-.4.1-.8.1s-.7-.1-1-.4c-.2-.3-.3-.7-.3-1.3v-2.6h-.8v-.7h.8v-1.2l.9-.2h0Z"/>
    <path class="cls-13" d="M643.8,204.8c-.2.1-.7.3-1.4.3-1.5,0-2.4-1-2.4-2.5s1-2.6,2.6-2.6,1,.1,1.2.3l-.2.7c-.2-.1-.5-.2-1-.2-1.1,0-1.7.8-1.7,1.8s.7,1.8,1.7,1.8.8-.1,1.1-.2l.2.7h0Z"/>
    <path class="cls-13" d="M649.2,202.5c0,1.8-1.2,2.6-2.4,2.6s-2.3-1-2.3-2.5,1.1-2.6,2.4-2.6,2.3,1,2.3,2.5h0ZM645.3,202.5c0,1.1.6,1.9,1.5,1.9s1.5-.8,1.5-1.9-.4-1.9-1.5-1.9-1.5,1-1.5,1.9h0Z"/>
    <path class="cls-13" d="M650.3,201.4c0-.5,0-.9,0-1.3h.8v.8h0c.3-.5.7-.9,1.5-.9s1.2.4,1.4,1h0c.2-.3.3-.5.5-.6.3-.2.6-.3,1.1-.3.7,0,1.6.4,1.6,2.1v2.9h-.9v-2.7c0-.9-.3-1.5-1-1.5s-.9.4-1,.8c0,.1,0,.3,0,.4v3h-.9v-2.9c0-.8-.3-1.3-1-1.3s-1,.4-1.1.9c0,.1,0,.3,0,.4v2.9h-.9v-3.5h0Z"/>
    <path class="cls-13" d="M658.6,201.7c0-.6,0-1.1,0-1.6h.8v.8h0c.3-.6.9-.9,1.7-.9,1.2,0,2,1,2,2.4s-1.1,2.6-2.2,2.6-1.2-.3-1.5-.8h0v2.6h-.9v-5.2h0ZM659.5,203c0,.1,0,.2,0,.4.2.6.7,1,1.3,1,.9,0,1.5-.8,1.5-1.9s-.5-1.8-1.4-1.8-1.2.4-1.3,1.1c0,.1,0,.2,0,.4v.8h0Z"/>
    <path class="cls-13" d="M667,204.9v-.6h-.1c-.3.4-.8.7-1.5.7-1,0-1.5-.7-1.5-1.4,0-1.2,1-1.8,2.9-1.8h0c0-.5-.1-1.2-1.1-1.2-.5,0-.9.1-1.3.4l-.2-.6c.4-.3,1-.4,1.6-.4,1.5,0,1.8,1,1.8,2v1.8c0,.4,0,.8,0,1.2h-.8,0s0,0,0,0ZM666.8,202.5c-1,0-2,.1-2,1.1s.4.8.8.8c.6,0,1-.4,1.2-.8,0,0,0-.2,0-.3v-.8h0Z"/>
    <path class="cls-13" d="M669.1,201.6c0-.6,0-1.1,0-1.5h.8v.9h0c.2-.6.8-1.1,1.3-1.1s.2,0,.2,0v.8c0,0-.2,0-.3,0-.6,0-1.1.5-1.2,1.1,0,.1,0,.3,0,.4v2.6h-.9v-3.3h0Z"/>
    <path class="cls-13" d="M672.8,202.7c0,1.2.8,1.7,1.7,1.7s1-.1,1.3-.2l.2.6c-.3.1-.8.3-1.6.3-1.5,0-2.4-1-2.4-2.4s.9-2.6,2.3-2.6,2,1.4,2,2.3,0,.3,0,.4h-3.4,0ZM675.4,202c0-.6-.2-1.4-1.2-1.4s-1.3.8-1.3,1.4h2.6Z"/>
    <path class="cls-13" d="M613.2,216.9v-.6h-.1c-.3.4-.8.7-1.5.7-1,0-1.5-.7-1.5-1.4,0-1.2,1-1.8,2.9-1.8h0c0-.5-.1-1.2-1.1-1.2-.5,0-.9.1-1.3.4l-.2-.6c.4-.3,1-.4,1.6-.4,1.5,0,1.8,1,1.8,2v1.8c0,.4,0,.8,0,1.2h-.8,0s0,0,0,0ZM613.1,214.5c-1,0-2,.1-2,1.1s.4.8.8.8c.6,0,1-.4,1.2-.8,0,0,0-.2,0-.3v-.8h0Z"/>
    <path class="cls-13" d="M619.5,212.1c0,.3,0,.7,0,1.3v2.8c0,1.1-.2,1.8-.7,2.2-.5.4-1.2.6-1.8.6s-1.2-.1-1.6-.4l.2-.7c.3.2.8.4,1.4.4.9,0,1.6-.5,1.6-1.7v-.5h0c-.3.4-.8.8-1.5.8-1.2,0-2.1-1-2.1-2.4s1.1-2.6,2.2-2.6,1.3.4,1.5.8h0v-.7h.8,0ZM618.6,214c0-.1,0-.3,0-.4-.2-.5-.6-.9-1.2-.9s-1.4.7-1.4,1.8.5,1.7,1.4,1.7,1-.3,1.2-.9c0-.1,0-.3,0-.5v-.9h0Z"/>
    <path class="cls-13" d="M623.7,216.9v-.6h-.1c-.3.4-.8.7-1.5.7-1,0-1.5-.7-1.5-1.4,0-1.2,1-1.8,2.9-1.8h0c0-.5-.1-1.2-1.1-1.2-.5,0-.9.1-1.3.4l-.2-.6c.4-.3,1-.4,1.6-.4,1.5,0,1.8,1,1.8,2v1.8c0,.4,0,.8,0,1.2h-.8s0,0,0,0ZM623.5,214.5c-1,0-2,.1-2,1.1s.4.8.8.8c.6,0,1-.4,1.2-.8,0,0,0-.2,0-.3v-.8h0Z"/>
    <path class="cls-13" d="M626.8,210.7c0,.3-.2.6-.6.6s-.5-.2-.5-.6.2-.6.5-.6.5.2.5.6h0ZM625.8,216.9v-4.8h.9v4.8h-.9Z"/>
    <path class="cls-13" d="M628.1,213.4c0-.5,0-.9,0-1.3h.8v.8h0c.2-.4.8-.9,1.6-.9s1.7.4,1.7,2.1v2.9h-.9v-2.8c0-.8-.3-1.4-1.1-1.4s-1,.4-1.2.9c0,.1,0,.3,0,.4v2.9h-.9v-3.5h0s0,0,0,0Z"/>
    <path class="cls-13" d="M633.5,216c.3.2.7.3,1.2.3.6,0,.9-.3.9-.7s-.2-.6-.9-.9c-.9-.3-1.3-.8-1.3-1.4s.6-1.4,1.7-1.4.9.1,1.2.3l-.2.6c-.2-.1-.5-.3-1-.3s-.8.3-.8.7.3.6.9.8c.8.3,1.3.7,1.3,1.4s-.7,1.5-1.8,1.5-1-.1-1.4-.3l.2-.7h0Z"/>
    <path class="cls-13" d="M638.7,210.7v1.4h1.3v.7h-1.3v2.6c0,.6.2.9.7.9s.4,0,.5,0v.7c-.1,0-.4.1-.8.1s-.7-.1-1-.4c-.2-.3-.3-.7-.3-1.3v-2.6h-.8v-.7h.8v-1.2l.9-.2h0Z"/>
    <path class="cls-13" d="M645.8,216.9v-.6h-.1c-.3.4-.8.7-1.5.7-1,0-1.5-.7-1.5-1.4,0-1.2,1-1.8,2.9-1.8h0c0-.5-.1-1.2-1.1-1.2-.5,0-.9.1-1.3.4l-.2-.6c.4-.3,1-.4,1.6-.4,1.5,0,1.8,1,1.8,2v1.8c0,.4,0,.8,0,1.2h-.8s0,0,0,0ZM645.6,214.5c-1,0-2,.1-2,1.1s.4.8.8.8c.6,0,1-.4,1.2-.8,0,0,0-.2,0-.3v-.8h0Z"/>
    <path class="cls-13" d="M647.9,213.4c0-.5,0-.9,0-1.3h.8v.8h0c.2-.4.8-.9,1.6-.9s1.7.4,1.7,2.1v2.9h-.9v-2.8c0-.8-.3-1.4-1.1-1.4s-1,.4-1.2.9c0,.1,0,.3,0,.4v2.9h-.9v-3.5h0s0,0,0,0Z"/>
    <path class="cls-13" d="M657.8,214.5c0,1.8-1.2,2.6-2.4,2.6s-2.3-1-2.3-2.5,1.1-2.6,2.4-2.6,2.3,1,2.3,2.5h0ZM654,214.5c0,1.1.6,1.9,1.5,1.9s1.5-.8,1.5-1.9-.4-1.9-1.5-1.9-1.5,1-1.5,1.9h0Z"/>
    <path class="cls-13" d="M660,210.7v1.4h1.3v.7h-1.3v2.6c0,.6.2.9.7.9s.4,0,.5,0v.7c-.1,0-.4.1-.8.1s-.7-.1-1-.4c-.2-.3-.3-.7-.3-1.3v-2.6h-.8v-.7h.8v-1.2l.9-.2h0Z"/>
    <path class="cls-13" d="M662.2,209.8h.9v3h0c.2-.2.4-.5.6-.6s.6-.2.9-.2c.7,0,1.7.4,1.7,2.1v2.9h-.9v-2.8c0-.8-.3-1.4-1.1-1.4s-1,.4-1.2.9c0,.1,0,.3,0,.4v2.9h-.9v-7.1h0Z"/>
    <path class="cls-13" d="M668.3,214.7c0,1.2.8,1.7,1.7,1.7s1-.1,1.3-.2l.2.6c-.3.1-.8.3-1.6.3-1.5,0-2.4-1-2.4-2.4s.9-2.6,2.3-2.6,2,1.4,2,2.3,0,.3,0,.4h-3.4,0ZM670.9,214c0-.6-.2-1.4-1.2-1.4s-1.3.8-1.3,1.4h2.6Z"/>
    <path class="cls-13" d="M672.8,213.6c0-.6,0-1.1,0-1.5h.8v.9h0c.2-.6.8-1.1,1.3-1.1s.2,0,.2,0v.8c0,0-.2,0-.3,0-.6,0-1.1.5-1.2,1.1,0,.1,0,.3,0,.4v2.6h-.9v-3.3h0Z"/>
    <path class="cls-13" d="M623.4,228.9v-.6h-.1c-.3.4-.8.7-1.5.7-1,0-1.5-.7-1.5-1.4,0-1.2,1-1.8,2.9-1.8h0c0-.5-.1-1.2-1.1-1.2-.5,0-.9.1-1.3.4l-.2-.6c.4-.3,1-.4,1.6-.4,1.5,0,1.8,1,1.8,2v1.8c0,.4,0,.8,0,1.2h-.8,0s0,0,0,0ZM623.3,226.5c-1,0-2,.1-2,1.1s.4.8.8.8c.6,0,1-.4,1.2-.8,0,0,0-.2,0-.3v-.8h0Z"/>
    <path class="cls-13" d="M625.5,221.8h.9v7.1h-.9v-7.1Z"/>
    <path class="cls-13" d="M632.1,224.1c0,.3,0,.7,0,1.3v2.8c0,1.1-.2,1.8-.7,2.2-.5.4-1.2.6-1.8.6s-1.2-.1-1.6-.4l.2-.7c.3.2.8.4,1.4.4.9,0,1.6-.5,1.6-1.7v-.5h0c-.3.4-.8.8-1.5.8-1.2,0-2.1-1-2.1-2.4s1.1-2.6,2.2-2.6,1.3.4,1.5.8h0v-.7h.8,0ZM631.2,226c0-.1,0-.3,0-.4-.2-.5-.6-.9-1.2-.9s-1.4.7-1.4,1.8.5,1.7,1.4,1.7,1-.3,1.2-.9c0-.1,0-.3,0-.5v-.9h0Z"/>
    <path class="cls-13" d="M637.9,226.5c0,1.8-1.2,2.6-2.4,2.6s-2.3-1-2.3-2.5,1.1-2.6,2.4-2.6,2.3,1,2.3,2.5h0ZM634,226.5c0,1.1.6,1.9,1.5,1.9s1.5-.8,1.5-1.9-.4-1.9-1.5-1.9-1.5,1-1.5,1.9h0Z"/>
    <path class="cls-13" d="M639,225.6c0-.6,0-1.1,0-1.5h.8v.9h0c.2-.6.8-1.1,1.3-1.1s.2,0,.2,0v.8c0,0-.2,0-.3,0-.6,0-1.1.5-1.2,1.1,0,.1,0,.3,0,.4v2.6h-.9v-3.3h0Z"/>
    <path class="cls-13" d="M643.3,222.7c0,.3-.2.6-.6.6s-.5-.2-.5-.6.2-.6.5-.6.5.2.5.6h0ZM642.3,228.9v-4.8h.9v4.8h-.9Z"/>
    <path class="cls-13" d="M645.7,222.7v1.4h1.3v.7h-1.3v2.6c0,.6.2.9.7.9s.4,0,.5,0v.7c-.1,0-.4.1-.8.1s-.7-.1-1-.4c-.2-.3-.3-.7-.3-1.3v-2.6h-.8v-.7h.8v-1.2l.9-.2h0Z"/>
    <path class="cls-13" d="M648,221.8h.9v3h0c.2-.2.4-.5.6-.6.3-.1.6-.2.9-.2.7,0,1.7.4,1.7,2.1v2.9h-.9v-2.8c0-.8-.3-1.4-1.1-1.4s-1,.4-1.2.9c0,.1,0,.3,0,.4v2.9h-.9v-7.1h0,0Z"/>
    <path class="cls-13" d="M653.5,225.4c0-.5,0-.9,0-1.3h.8v.8h0c.3-.5.7-.9,1.5-.9s1.2.4,1.4,1h0c.2-.3.3-.5.5-.6.3-.2.6-.3,1.1-.3.7,0,1.6.4,1.6,2.1v2.9h-.9v-2.7c0-.9-.3-1.5-1-1.5s-.9.4-1,.8c0,.1,0,.3,0,.4v3h-.9v-2.9c0-.8-.3-1.3-1-1.3s-1,.4-1.1.9c0,.1,0,.3,0,.4v2.9h-.9v-3.5h0Z"/>
    <path class="cls-13" d="M662.5,227v-.3c0-.5,0-1.1.6-1.7.5-.5.7-.9.7-1.4s-.3-.9-1-.9-.8.1-1,.3l-.2-.6c.3-.2.9-.4,1.4-.4,1.2,0,1.7.7,1.7,1.5s-.4,1.2-.9,1.7c-.4.5-.6,1-.6,1.5v.3h-.8,0ZM662.3,228.4c0-.4.2-.6.6-.6s.6.3.6.6-.2.6-.6.6-.6-.3-.6-.6Z"/>
    <rect class="cls-10" x="691.8" y="104.8" width="80.4" height="48.7" rx="12.4" ry="12.4"/>
    <path class="cls-13" d="M343.9,166.7l.6-3.4c.1-.5.2-1,.2-1.4h.7v.9c-.1,0-.1,0-.1,0,.4-.7,1.1-1.1,1.8-1.1s1.2.3,1.2,1.3,0,.5,0,.8l-.5,2.8h-.8l.5-2.8c0-.2,0-.4,0-.6,0-.5-.2-.8-.8-.8s-1.4.7-1.6,1.9l-.4,2.4h-.8,0Z"/>
    <path class="cls-13" d="M353.8,163.8c0,1.5-1.1,3-2.7,3s-1.9-.9-1.9-2c0-1.6,1.1-3.1,2.7-3.1s1.9,1,1.9,2h0ZM350.1,164.8c0,.8.4,1.4,1.1,1.4s1.7-1.3,1.7-2.4-.3-1.4-1.1-1.4-1.7,1.3-1.7,2.4Z"/>
    <path class="cls-6" d="M714.3,126v6.7h-1.2v-6.7h1.2Z"/>
    <path class="cls-6" d="M715.8,129.3c0-.6,0-1,0-1.4h1.1v.7h0c.2-.4.7-.8,1.5-.8s1.7.6,1.7,2.1v2.9h-1.2v-2.8c0-.7-.3-1.2-.9-1.2s-.8.4-1,.7c0,.1,0,.2,0,.4v2.9h-1.2v-3.4h0Z"/>
    <path class="cls-6" d="M723.5,131.6c.3.2.8.4,1.2.4s.8-.2.8-.6-.2-.5-.8-.7c-1-.3-1.3-.8-1.3-1.4,0-.9.7-1.5,1.8-1.5s1,.1,1.3.3l-.2.9c-.2-.1-.6-.3-1-.3s-.7.2-.7.5.2.5.8.7c.9.3,1.3.8,1.3,1.5,0,.9-.7,1.5-2,1.5s-1.1-.1-1.5-.3l.2-.9h0Z"/>
    <path class="cls-6" d="M732.1,131.3c0,.6,0,1.1,0,1.5h-1.1v-.7h0c-.2.3-.7.9-1.6.9s-1.7-.5-1.7-2.1v-2.8h1.2v2.7c0,.8.3,1.3.9,1.3s.8-.3.9-.7c0-.1,0-.2,0-.4v-2.9h1.2v3.4h0Z"/>
    <path class="cls-6" d="M733.4,129.4c0-.6,0-1.1,0-1.6h1.1v.9h0c.2-.7.8-1,1.3-1s.2,0,.3,0v1.2c-.1,0-.2,0-.4,0-.6,0-1,.4-1.1.9,0,.1,0,.2,0,.4v2.5h-1.2v-3.3h0Z"/>
    <path class="cls-6" d="M738,127.9l.8,2.5c.1.4.2.8.3,1.2h0c0-.4.2-.8.3-1.2l.8-2.5h1.3l-1.9,4.9h-1.2l-1.8-4.9h1.3,0Z"/>
    <path class="cls-6" d="M743,130.6c0,.9.7,1.3,1.5,1.3s1,0,1.3-.2l.2.9c-.4.2-1,.3-1.7.3-1.6,0-2.5-1-2.5-2.5s.8-2.6,2.4-2.6,2.1,1.3,2.1,2.4,0,.4,0,.5h-3.3ZM745.1,129.8c0-.4-.2-1.2-1-1.2s-1.1.7-1.1,1.2h2.1Z"/>
    <path class="cls-6" d="M748,127.9l.9,2.6c0,.3.2.7.3.9h0c0-.3.2-.6.3-.9l.8-2.6h1.3l-1.2,3.3c-.7,1.8-1.1,2.6-1.7,3.1-.5.4-1,.6-1.3.6l-.3-1c.2,0,.5-.2.7-.3.2-.1.5-.4.7-.8,0,0,0-.2,0-.2s0-.1,0-.2l-1.8-4.5h1.4s0,0,0,0Z"/>
    <line class="cls-2" x1="582" y1="129.2" x2="684.9" y2="129.2"/>
    <polygon class="cls-9" points="684.2 123.7 684.2 134.6 689.7 129.2 684.2 123.7"/>
    <path class="cls-2" d="M102.5,201.2h16.9c6.6,0,12,5.4,12,12v35.5c0,7.4,6,13.4,13.4,13.4h280.6c8.1,0,14.7-6.6,14.7-14.7v-3.1"/>
    <polygon class="cls-9" points="444.5 245.5 440 237.7 435.5 245.5 444.5 245.5"/>
    <path class="cls-6" d="M346.8,82.3h1.8c6.9,0,12.4,5.6,12.4,12.4h0c0,6.9-5.6,12.4-12.4,12.4h-1.8c-6.9,0-12.4-5.6-12.4-12.4h0c0-6.9,5.6-12.4,12.4-12.4Z"/>
    <path class="cls-13" d="M342.8,87.4l.5,2.6c.1.6.2.9.2,1.3h0c.1-.3.3-.7.5-1.2l1.2-2.7h.9l-1.8,3.7c-.5,1.1-1,1.9-1.7,2.5-.5.5-1.1.8-1.4.8l-.2-.7c.2,0,.6-.2.9-.5.3-.2.7-.6.9-1.1,0,0,0-.1,0-.2l-1-4.5h.9Z"/>
    <path class="cls-13" d="M349.6,92c-.4.2-1,.4-1.6.4-1.3,0-1.8-.9-1.8-1.9s1.1-3.1,2.6-3.1,1.4.6,1.4,1.2c0,1.3-1.4,1.6-3.2,1.6,0,.2,0,.7.1.9.2.4.6.7,1.1.7s1-.2,1.3-.3v.6h.1ZM348.6,87.9c-.8,0-1.4.8-1.6,1.5,1.3,0,2.3-.2,2.3-.9s-.3-.6-.7-.6Z"/>
    <path class="cls-13" d="M350.6,91.4c.2.1.6.3,1,.3s.9-.4.9-.8-.2-.6-.7-.9c-.6-.3-.9-.7-.9-1.2,0-.8.7-1.5,1.8-1.5s.8.1,1,.2l-.2.6c-.2,0-.5-.2-.8-.2-.5,0-.9.3-.9.7s.2.6.7.8c.5.3.9.7.9,1.3,0,1-.8,1.6-1.9,1.6s-1-.2-1.2-.3l.2-.6h0Z"/>
    <path class="cls-13" d="M340.2,105.3l1.5-8h1.8v.5h-1.2l-1.3,6.9h1.1v.5h-1.9,0Z"/>
    <path class="cls-13" d="M343.3,103.3c.2.1.7.4,1.2.4,1.1,0,1.6-.8,1.6-1.4s-.6-1.2-1.4-1.2h-.3v-.7h.5c.6,0,1.6-.4,1.6-1.3s-.3-.8-.9-.8-.9.2-1.2.4l-.2-.6c.4-.2,1-.4,1.5-.4,1.1,0,1.7.6,1.7,1.4s-.7,1.5-1.4,1.7h0c.7.2,1.1.8,1.1,1.5,0,1.2-1.1,2.2-2.5,2.2s-1.3-.2-1.5-.4l.3-.7h0Z"/>
    <path class="cls-13" d="M347.8,104.2v-.6c.1,0,1.1-.8,1.1-.8,1.7-1.5,2.8-2.5,2.8-3.6s-.3-1-1-1-1,.3-1.3.5l-.2-.6c.5-.3,1.1-.6,1.7-.6,1.2,0,1.7.8,1.7,1.6,0,1.4-1.3,2.6-2.8,3.9l-.5.4h0s2.7,0,2.7,0v.7h-4.1Z"/>
    <path class="cls-13" d="M355.5,97.4l-1.5,8h-1.8v-.5h1.2l1.3-6.9h-1.1v-.5h1.9,0Z"/>
    <path class="cls-6" d="M346.8,217.6h1.8c6.9,0,12.4,5.6,12.4,12.4h0c0,6.9-5.6,12.4-12.4,12.4h-1.8c-6.9,0-12.4-5.6-12.4-12.4h0c0-6.9,5.6-12.4,12.4-12.4Z"/>
    <path class="cls-13" d="M342.8,222.7l.5,2.6c.1.6.2.9.2,1.3h0c.1-.3.3-.6.5-1.2l1.2-2.7h.9l-1.8,3.7c-.5,1.1-1,1.9-1.7,2.5-.5.5-1.1.8-1.4.8l-.2-.7c.2,0,.6-.2.9-.5.3-.2.7-.6.9-1.1,0,0,0-.1,0-.2l-1-4.5h.9Z"/>
    <path class="cls-13" d="M349.6,227.3c-.4.2-1,.4-1.6.4-1.3,0-1.8-.9-1.8-1.9s1.1-3.1,2.6-3.1,1.4.6,1.4,1.2c0,1.3-1.4,1.6-3.2,1.6,0,.2,0,.7.1.9.2.4.6.6,1.1.6s1-.2,1.3-.3v.6h.1ZM348.6,223.3c-.8,0-1.4.8-1.6,1.5,1.3,0,2.3-.2,2.3-.9s-.3-.6-.7-.6Z"/>
    <path class="cls-13" d="M350.6,226.7c.2.1.6.3,1,.3s.9-.4.9-.8-.2-.6-.7-.9c-.6-.3-.9-.7-.9-1.2,0-.8.7-1.5,1.8-1.5s.8.1,1,.2l-.2.6c-.2-.1-.5-.2-.8-.2-.5,0-.9.3-.9.7s.2.6.7.8c.5.3.9.7.9,1.3,0,1-.8,1.6-1.9,1.6s-1-.2-1.2-.3l.2-.6h0Z"/>
    <path class="cls-13" d="M340.2,240.7l1.5-8h1.8v.5h-1.2l-1.3,6.9h1.1v.5h-1.9,0Z"/>
    <path class="cls-13" d="M345.4,239.6l.3-1.8h-2.8v-.6c.1,0,3.6-4.1,3.6-4.1h.9l-.8,4h.9v.7h-1l-.3,1.8h-.8ZM345.9,237.1l.4-2.2c0-.4.2-.7.2-1h0c-.3.4-.5.7-.7,1.1l-1.8,2.1h0s1.9,0,1.9,0h0Z"/>
    <path class="cls-13" d="M353,233.1v.6c-1.4,2-2.6,3.9-3.9,5.9h-.9c1.3-1.9,2.5-3.8,3.7-5.8h0s-3,0-3,0v-.7h4,0Z"/>
    <path class="cls-13" d="M355.5,232.7l-1.5,8h-1.8v-.5h1.2l1.3-6.9h-1.1v-.5h1.9,0Z"/>
    <rect class="cls-6" x="462.5" y="258.9" width="75.5" height="24.9" rx="12.4" ry="12.4"/>
    <path class="cls-13" d="M471.6,264l.5,2.6c.1.6.2.9.2,1.3h0c.1-.3.3-.6.5-1.2l1.2-2.7h.9l-1.8,3.7c-.5,1-1,1.9-1.7,2.5-.5.5-1.1.8-1.4.8l-.2-.7c.2,0,.6-.2.9-.5.3-.2.7-.6.9-1.1,0,0,0-.1,0-.2l-1-4.5h.9Z"/>
    <path class="cls-13" d="M478.4,268.6c-.4.2-1,.4-1.6.4-1.3,0-1.8-.9-1.8-1.9s1.1-3.1,2.6-3.1,1.4.5,1.4,1.2c0,1.3-1.4,1.6-3.2,1.6,0,.2,0,.7.1.9.2.4.6.6,1.1.6s1-.2,1.3-.3v.6h.1ZM477.5,264.6c-.8,0-1.4.8-1.6,1.5,1.3,0,2.3-.2,2.3-.9s-.3-.6-.7-.6Z"/>
    <path class="cls-13" d="M479.5,268c.2.1.6.3,1,.3s.9-.4.9-.8-.2-.6-.7-.9c-.6-.3-.9-.7-.9-1.2,0-.8.7-1.5,1.8-1.5s.8.1,1,.2l-.2.6c-.2-.1-.5-.2-.8-.2-.5,0-.9.3-.9.7s.2.6.7.8c.5.3.9.7.9,1.3,0,1-.8,1.6-1.9,1.6s-1-.2-1.2-.3l.2-.6h0Z"/>
    <path class="cls-13" d="M482.4,270.1c.3-.6.8-1.7,1-2.4h1c-.4.8-1,1.9-1.3,2.3h-.6Z"/>
    <path class="cls-13" d="M487,268.9l.9-4.8h.8l-.9,4.8h-.8ZM488.1,262.7c0-.3.2-.6.5-.6s.5.2.5.5-.2.6-.6.6-.5-.2-.5-.5h0Z"/>
    <path class="cls-13" d="M489.3,268.9l.6-3.4c.1-.5.2-1,.2-1.4h.7v1c-.1,0-.1,0-.1,0,.4-.7,1.1-1.1,1.8-1.1s1.2.3,1.2,1.3,0,.5,0,.8l-.5,2.8h-.8l.5-2.8c0-.2,0-.4,0-.6,0-.5-.2-.8-.8-.8s-1.4.7-1.6,1.9l-.4,2.4h-.8,0Z"/>
    <path class="cls-13" d="M498,268.7c-.2.1-.8.3-1.4.3-1.2,0-1.9-.8-1.9-1.9,0-1.6,1.2-3.2,3-3.2s.9.1,1,.2l-.2.7c-.2,0-.5-.2-.8-.2-1.2,0-2,1.2-2,2.4s.4,1.3,1.2,1.3.9-.1,1.1-.3v.7h0Z"/>
    <path class="cls-13" d="M498.9,268.9l1.4-7.1h.8l-1.4,7.1h-.8,0Z"/>
    <path class="cls-13" d="M505.9,264l-.6,3.4c-.1.5-.2,1-.2,1.4h-.8v-.9c.1,0,.1,0,.1,0-.4.6-1.1,1-1.7,1s-1.3-.3-1.3-1.4,0-.5,0-.8l.5-2.7h.8l-.5,2.7c0,.3,0,.5,0,.7,0,.5.2.8.8.8s1.4-.7,1.6-1.8l.5-2.5h.8Z"/>
    <path class="cls-13" d="M511.6,261.8l-1.1,5.6c0,.5-.2,1.1-.2,1.5h-.8v-1c.1,0,.1,0,.1,0-.4.7-1,1.1-1.7,1.1s-1.4-.8-1.4-1.8c0-1.7,1.3-3.3,3-3.3s.6,0,.9.2l.4-2.3h.8ZM510.2,264.8c-.2-.1-.4-.2-.8-.2-1.2,0-2.1,1.2-2.1,2.5s.2,1.2.9,1.2,1.4-.7,1.6-1.8l.3-1.7h0Z"/>
    <path class="cls-13" d="M515.2,268.6c-.4.2-1,.4-1.6.4-1.3,0-1.8-.9-1.8-1.9s1.1-3.1,2.6-3.1,1.4.5,1.4,1.2c0,1.3-1.4,1.6-3.2,1.6,0,.2,0,.7,0,.9.2.4.6.6,1.1.6s1-.2,1.3-.3v.6h.1ZM514.2,264.6c-.8,0-1.4.8-1.6,1.5,1.3,0,2.3-.2,2.3-.9s-.3-.6-.7-.6h0Z"/>
    <path class="cls-13" d="M520.2,262.8l-.2,1.3h1.2v.6h-1.3l-.5,2.4c0,.3,0,.5,0,.8s.1.5.5.5.3,0,.4,0v.6c-.2,0-.4,0-.7,0-.7,0-1-.4-1-.9s0-.6.1-.9l.5-2.5h-.7v-.6h.8l.2-1.1.9-.2h0Z"/>
    <path class="cls-13" d="M521.2,268.9l1.3-7.1h.8l-.6,3.1h0c.4-.6,1-1,1.7-1s1.2.3,1.2,1.3,0,.6,0,.8l-.5,2.8h-.8l.5-2.8c0-.2,0-.4,0-.7,0-.4-.2-.8-.8-.8s-1.4.8-1.7,1.8l-.5,2.4h-.8,0Z"/>
    <path class="cls-13" d="M530,268.6c-.4.2-1,.4-1.6.4-1.3,0-1.8-.9-1.8-1.9s1.1-3.1,2.6-3.1,1.4.5,1.4,1.2c0,1.3-1.4,1.6-3.2,1.6,0,.2,0,.7,0,.9.2.4.6.6,1.1.6s1-.2,1.3-.3v.6h.1ZM529,264.6c-.8,0-1.4.8-1.6,1.5,1.3,0,2.3-.2,2.3-.9s-.3-.6-.7-.6h0Z"/>
    <path class="cls-13" d="M482.1,278c0,1.5-1.1,3-2.7,3s-1.9-.9-1.9-2c0-1.6,1.1-3.1,2.7-3.1s1.9,1,1.9,2h0ZM478.4,279c0,.8.4,1.4,1.1,1.4s1.7-1.3,1.7-2.4-.3-1.4-1.1-1.4-1.7,1.3-1.7,2.4h0Z"/>
    <path class="cls-13" d="M484.8,274.8l-.2,1.3h1.2v.6h-1.3l-.5,2.4c0,.3-.1.5-.1.8s.1.5.5.5.3,0,.4,0v.6c-.2,0-.4,0-.7,0-.7,0-1-.4-1-.9s0-.6.1-.9l.5-2.5h-.7v-.6h.8l.2-1.1.9-.2h0Z"/>
    <path class="cls-13" d="M485.8,280.9l1.4-7.1h.8l-.6,3.1h0c.4-.6,1-1,1.7-1s1.2.3,1.2,1.3,0,.6,0,.8l-.5,2.8h-.8l.5-2.8c0-.2,0-.4,0-.7,0-.4-.2-.8-.8-.8s-1.4.8-1.6,1.8l-.5,2.4h-.8,0Z"/>
    <path class="cls-13" d="M494.6,280.6c-.4.2-1,.4-1.6.4-1.3,0-1.8-.9-1.8-1.9s1.1-3.1,2.6-3.1,1.4.5,1.4,1.2c0,1.3-1.4,1.6-3.2,1.6,0,.2,0,.7.1.9.2.4.6.6,1.1.6s1-.2,1.3-.3v.6h.1ZM493.7,276.6c-.8,0-1.4.8-1.6,1.5,1.3,0,2.3-.2,2.3-.9s-.3-.6-.7-.6h0Z"/>
    <path class="cls-13" d="M495.7,280.9l.6-3.1c.1-.6.2-1.3.2-1.7h.7c0,.3,0,.7-.1,1h0c.3-.7.8-1.2,1.5-1.2s.2,0,.2,0l-.2.8c0,0-.1,0-.2,0-.7,0-1.4.9-1.6,2l-.4,2.1h-.8Z"/>
    <path class="cls-13" d="M500.2,282.9l1-5.1c.1-.6.2-1.2.3-1.7h.8v.9c-.1,0-.1,0-.1,0,.4-.6,1.1-1,1.7-1,1,0,1.5.9,1.5,1.8,0,1.7-1.2,3.3-2.8,3.3s-.9-.1-1-.2h0l-.4,2.1h-.8,0ZM501.6,280.1c.2.2.5.3.9.3,1.1,0,2-1.3,2-2.6s-.2-1.1-.9-1.1-1.5.7-1.7,2.1l-.2,1.4h0Z"/>
    <path class="cls-13" d="M509.1,280.9c0-.3,0-.8.1-1.2h0c-.5,1-1.2,1.4-1.9,1.4s-1.4-.7-1.4-1.6c0-1.7,1.2-3.5,3.3-3.5s1,0,1.3.2l-.5,2.5c-.2.8-.2,1.7-.2,2.2h-.8,0ZM509.7,276.7c-.1,0-.3,0-.6,0-1.2,0-2.3,1.3-2.3,2.6,0,.5.2,1.1.8,1.1s1.5-.9,1.8-2.2l.3-1.5Z"/>
    <path class="cls-13" d="M510.7,282.9l1-5.1c.1-.6.2-1.2.3-1.7h.8v.9c-.1,0-.1,0-.1,0,.4-.6,1.1-1,1.7-1,1,0,1.5.9,1.5,1.8,0,1.7-1.2,3.3-2.8,3.3s-.8-.1-1-.2h0l-.4,2.1h-.8,0ZM512.1,280.1c.2.2.5.3.9.3,1.1,0,2-1.3,2-2.6s-.2-1.1-.9-1.1-1.5.7-1.7,2.1l-.2,1.4h0Z"/>
    <path class="cls-13" d="M519.9,280.6c-.4.2-1,.4-1.6.4-1.3,0-1.8-.9-1.8-1.9s1.1-3.1,2.6-3.1,1.4.5,1.4,1.2c0,1.3-1.4,1.6-3.2,1.6,0,.2,0,.7,0,.9.2.4.6.6,1.1.6s1-.2,1.3-.3v.6h.1ZM519,276.6c-.8,0-1.4.8-1.6,1.5,1.3,0,2.3-.2,2.3-.9s-.3-.6-.7-.6h0Z"/>
    <path class="cls-13" d="M521,280.9l.6-3.1c.1-.6.2-1.3.2-1.7h.7c0,.3,0,.7-.1,1h0c.3-.7.8-1.2,1.5-1.2s.2,0,.2,0l-.2.8c0,0-.1,0-.2,0-.7,0-1.4.9-1.6,2l-.4,2.1h-.8Z"/>
    <path class="cls-6" d="M634.9,116.1h1.8c6.9,0,12.4,5.6,12.4,12.4h0c0,6.9-5.6,12.4-12.4,12.4h-1.8c-6.9,0-12.4-5.6-12.4-12.4h0c0-6.9,5.6-12.4,12.4-12.4Z"/>
    <path class="cls-13" d="M630.9,121.2l.5,2.6c.1.6.2.9.2,1.3h0c.1-.3.3-.7.5-1.2l1.2-2.7h.9l-1.8,3.7c-.5,1.1-1,1.9-1.7,2.5-.5.5-1.1.8-1.4.8l-.2-.7c.2,0,.6-.2.9-.5s.7-.6.9-1.1c0,0,0-.1,0-.2l-1-4.5h.9,0Z"/>
    <path class="cls-13" d="M637.7,125.8c-.4.2-1,.4-1.6.4-1.3,0-1.8-.9-1.8-1.9s1.1-3.1,2.6-3.1,1.4.6,1.4,1.2c0,1.3-1.4,1.6-3.2,1.6,0,.2,0,.7,0,.9.2.4.6.7,1.1.7s1-.2,1.3-.3v.6h.1ZM636.7,121.8c-.8,0-1.4.8-1.6,1.5,1.3,0,2.3-.2,2.3-.9s-.3-.6-.7-.6Z"/>
    <path class="cls-13" d="M638.7,125.2c.2.1.6.3,1,.3s.9-.4.9-.8-.2-.6-.7-.9c-.6-.3-.9-.7-.9-1.2,0-.8.7-1.5,1.8-1.5s.8.1,1,.2l-.2.6c-.2,0-.5-.2-.8-.2-.5,0-.9.3-.9.7s.2.6.7.8c.5.3.9.7.9,1.3,0,1-.8,1.6-1.8,1.6s-1-.2-1.2-.3l.2-.6h0Z"/>
    <path class="cls-13" d="M625.8,139.2l1.5-8h1.8v.5h-1.2l-1.3,6.9h1.1v.5h-1.9Z"/>
    <path class="cls-13" d="M646.1,131.2l-1.5,8h-1.8v-.5h1.2l1.3-6.9h-1.1v-.5h1.9Z"/>
    <path class="cls-6" d="M348,150.8h1.8c6.9,0,12.4,5.6,12.4,12.4h0c0,6.9-5.6,12.4-12.4,12.4h-1.8c-6.9,0-12.4-5.6-12.4-12.4h0c0-6.9,5.6-12.4,12.4-12.4Z"/>
    <path class="cls-13" d="M343.9,160.7l.6-3.4c.1-.5.2-1,.2-1.4h.7v.9c-.1,0-.1,0-.1,0,.4-.7,1.1-1.1,1.8-1.1s1.2.3,1.2,1.3,0,.5,0,.8l-.5,2.8h-.8l.5-2.8c0-.2,0-.4,0-.6,0-.5-.2-.8-.8-.8s-1.4.7-1.6,1.9l-.4,2.4h-.8,0Z"/>
    <path class="cls-13" d="M353.8,157.8c0,1.5-1.1,3-2.7,3s-1.9-.9-1.9-2c0-1.6,1.1-3.1,2.7-3.1s1.9,1,1.9,2h0ZM350.1,158.8c0,.8.4,1.4,1.1,1.4s1.7-1.3,1.7-2.4-.3-1.4-1.1-1.4-1.7,1.3-1.7,2.4Z"/>
    <path class="cls-13" d="M338.8,173.8l1.5-8h1.8v.5h-1.2l-1.3,6.9h1.1v.5h-1.9,0Z"/>
    <path class="cls-13" d="M341.9,171.8c.2.1.7.4,1.2.4,1.1,0,1.6-.8,1.6-1.4s-.6-1.1-1.4-1.1h-.3v-.6h.5c.6,0,1.6-.4,1.6-1.3s-.3-.8-.9-.8-.9.2-1.2.4l-.2-.6c.4-.2,1-.4,1.5-.4,1.1,0,1.7.6,1.7,1.4s-.7,1.5-1.4,1.7h0c.7.2,1.1.8,1.1,1.5,0,1.2-1.1,2.1-2.5,2.1s-1.3-.2-1.5-.4l.3-.6h0Z"/>
    <path class="cls-13" d="M351,166.8c-.2,0-.4,0-.6,0-1.2.2-2.1,1.1-2.6,2.4h0c.4-.5,1-.8,1.6-.8,1,0,1.6.8,1.6,1.8s-1,2.6-2.4,2.6-1.9-.9-1.9-2.1.8-2.9,1.6-3.6c.6-.6,1.4-.9,2.1-1,.2,0,.4,0,.6,0v.7c-.1,0,0,0,0,0h0ZM350.1,170.3c0-.8-.4-1.2-1-1.2s-1,.3-1.4.9c0,0-.1.2-.1.3,0,.1,0,.3,0,.5,0,.8.4,1.4,1.1,1.4s1.5-1,1.5-1.9h0Z"/>
    <path class="cls-13" d="M351.3,172.7v-.6c.1,0,1.1-.8,1.1-.8,1.7-1.5,2.8-2.5,2.8-3.6s-.3-1-1-1-1,.3-1.3.5l-.2-.6c.5-.3,1.1-.6,1.7-.6,1.2,0,1.7.8,1.7,1.6,0,1.4-1.3,2.6-2.8,3.9l-.5.4h0s2.7,0,2.7,0v.7h-4.1Z"/>
    <path class="cls-13" d="M359.1,165.9l-1.5,8h-1.8v-.5h1.2l1.3-6.9h-1.1v-.5h1.9,0Z"/>
    <path class="cls-13" d="M263.5,130.8l.6-3.4c.1-.5.2-1,.2-1.4h.7v.9c-.1,0-.1,0-.1,0,.4-.7,1.1-1.1,1.8-1.1s1.2.3,1.2,1.3,0,.5,0,.8l-.5,2.8h-.8l.5-2.8c0-.2,0-.4,0-.6,0-.5-.2-.8-.8-.8s-1.4.7-1.6,1.9l-.4,2.4h-.8,0Z"/>
    <path class="cls-13" d="M273.5,127.8c0,1.5-1.1,3-2.7,3s-1.9-.9-1.9-2c0-1.6,1.1-3.1,2.7-3.1s1.9,1,1.9,2h0ZM269.8,128.9c0,.8.4,1.4,1.1,1.4s1.7-1.3,1.7-2.4-.3-1.3-1.1-1.3-1.7,1.3-1.7,2.4Z"/>
    <path class="cls-13" d="M263.5,197.9l.6-3.4c.1-.5.2-1,.2-1.4h.7v.9c-.1,0-.1,0-.1,0,.4-.7,1.1-1.1,1.8-1.1s1.2.3,1.2,1.3,0,.5,0,.8l-.5,2.8h-.8l.5-2.8c0-.2,0-.4,0-.6,0-.5-.2-.8-.8-.8s-1.4.7-1.6,1.9l-.4,2.4h-.8,0Z"/>
    <path class="cls-13" d="M273.5,195c0,1.5-1.1,3-2.7,3s-1.9-.9-1.9-2c0-1.6,1.1-3.1,2.7-3.1s1.9,1,1.9,2h0ZM269.8,196c0,.8.4,1.4,1.1,1.4s1.7-1.3,1.7-2.4-.3-1.4-1.1-1.4-1.7,1.3-1.7,2.4Z"/>
    <path class="cls-13" d="M121.8,159.4l1.5-8h1.8v.5h-1.2l-1.3,6.9h1.1v.5h-1.8Z"/>
    <path class="cls-13" d="M127,158.3l.3-1.8h-2.8v-.6c.1,0,3.6-4.1,3.6-4.1h.9l-.8,4h.9v.7h-1l-.3,1.8h-.8ZM127.4,155.8l.4-2.2c0-.4.2-.7.2-1h0c-.3.4-.4.7-.7,1.1l-1.8,2.1h0s1.9,0,1.9,0h0Z"/>
    <path class="cls-13" d="M134,152.5h-2.2l-.5,1.6c.1,0,.2,0,.3,0,.4,0,.8,0,1.1.3.5.3.8.9.8,1.4,0,1.6-1.3,2.5-2.7,2.5s-1.2-.2-1.4-.4l.2-.7c.2.1.7.3,1.2.3.9,0,1.7-.7,1.7-1.6s-.4-1.2-1.6-1.2-.5,0-.7,0l.9-3.1h2.9v.7h-.2Z"/>
    <path class="cls-13" d="M137.1,152.6h0l-1.1.6v-.6c0,0,1.4-.7,1.4-.7h.7l-1.2,6.5h-.8l1.1-5.7h0Z"/>
    <path class="cls-13" d="M142,151.4l-1.5,8h-1.8v-.5h1.2l1.3-6.9h-1.1v-.5h1.9,0Z"/>
    <path class="cls-13" d="M143.4,106.9l1.5-8h1.8v.5h-1.2l-1.3,6.9h1.1v.5h-1.9,0Z"/>
    <path class="cls-13" d="M149,100.2h0l-1.1.6v-.7c0,0,1.4-.7,1.4-.7h.7l-1.2,6.5h-.8l1.1-5.7h0Z"/>
    <path class="cls-13" d="M151,105.8v-.6c.1,0,1.1-.8,1.1-.8,1.7-1.5,2.8-2.5,2.8-3.6s-.3-1-1-1-1,.3-1.3.5l-.2-.6c.5-.3,1.1-.6,1.7-.6,1.2,0,1.7.8,1.7,1.6,0,1.4-1.3,2.6-2.8,3.9l-.6.4h0s2.7,0,2.7,0v.7h-4.1Z"/>
    <path class="cls-13" d="M158.5,105.8l.3-1.8h-2.8v-.6c.1,0,3.6-4.2,3.6-4.2h.9l-.8,4h.9v.7h-1l-.3,1.8h-.8ZM158.9,103.4l.4-2.2c0-.3.2-.7.2-1h0c-.3.4-.4.7-.7,1.1l-1.8,2.1h0s1.9,0,1.9,0h0Z"/>
    <path class="cls-13" d="M165.4,99.9c-.2,0-.4,0-.6,0-1.2.2-2.1,1.1-2.6,2.4h0c.4-.5,1-.8,1.6-.8,1,0,1.6.8,1.6,1.8s-1,2.6-2.4,2.6-1.9-.9-1.9-2.1.8-2.9,1.6-3.6c.6-.6,1.4-.9,2.1-1,.2,0,.4,0,.6,0v.7c-.1,0-.1,0-.1,0h0ZM164.6,103.4c0-.8-.4-1.2-1-1.2s-1,.3-1.4.9c0,0-.1.2-.1.3,0,.2,0,.3,0,.5,0,.8.4,1.3,1.1,1.3s1.5-1,1.5-1.9h0Z"/>
    <path class="cls-13" d="M168.6,99l-1.5,8h-1.8v-.5h1.2l1.3-6.9h-1.1v-.5h1.9,0Z"/>
    <path class="cls-13" d="M160.9,258.3l1.5-8h1.8v.5h-1.2l-1.3,6.9h1.1v.5h-1.9,0Z"/>
    <path class="cls-13" d="M168.2,251.4h-2.2l-.5,1.6c.1,0,.2,0,.3,0,.4,0,.8,0,1.1.3.5.3.8.9.8,1.4,0,1.6-1.3,2.5-2.7,2.5s-1.2-.2-1.4-.4l.2-.7c.2.1.7.3,1.2.3.9,0,1.7-.7,1.7-1.6s-.4-1.2-1.6-1.2-.5,0-.7,0l.9-3.1h2.9v.7h-.2Z"/>
    <path class="cls-13" d="M173.2,251.4h-2.2l-.5,1.6c.1,0,.2,0,.3,0,.4,0,.8,0,1.1.3.5.3.8.9.8,1.4,0,1.6-1.3,2.5-2.7,2.5s-1.2-.2-1.4-.4l.2-.7c.2.1.7.3,1.2.3.9,0,1.7-.7,1.7-1.6s-.4-1.2-1.6-1.2-.5,0-.7,0l.9-3.1h2.9v.7h-.2Z"/>
    <path class="cls-13" d="M176.2,250.3l-1.5,8h-1.8v-.5h1.2l1.3-6.9h-1.1v-.5h1.9,0Z"/>
  </g>
  <path class="cls-11" d="M244.1,46.8l1.5-8h1.8v.5h-1.2l-1.3,6.9h1.1v.5h-1.9Z"/>
  <path class="cls-11" d="M246.7,45.7v-.5c.1,0,1.1-.8,1.1-.8,1.7-1.5,2.8-2.5,2.8-3.5s-.3-1-1-1-1,.3-1.3.5l-.2-.6c.5-.3,1.1-.6,1.7-.6,1.2,0,1.7.8,1.7,1.6,0,1.4-1.3,2.6-2.8,3.9l-.6.4h0s2.7,0,2.7,0v.7h-4.1Z"/>
  <path class="cls-11" d="M256.2,39.8c-.2,0-.4,0-.6,0-1.2.2-2.1,1.1-2.6,2.4h0c.4-.5,1-.8,1.6-.8,1,0,1.6.8,1.6,1.8s-1,2.6-2.4,2.6-1.9-.9-1.9-2.1.8-2.9,1.6-3.6c.6-.5,1.4-.9,2.1-1,.2,0,.4,0,.6,0v.7c-.1,0-.1,0-.1,0ZM255.4,43.2c0-.8-.4-1.2-1-1.2s-1,.3-1.4.9c0,0-.1.2-.1.3,0,.2,0,.3,0,.5,0,.8.4,1.3,1.1,1.3s1.5-1,1.5-1.9h0Z"/>
  <path class="cls-11" d="M259.1,45.7l.3-1.8h-2.8v-.6c.1,0,3.6-4.2,3.6-4.2h.9l-.8,4h.9v.7h-1l-.3,1.8h-.8ZM259.6,43.3l.4-2.2c0-.3.2-.7.2-1h0c-.3.4-.5.7-.7,1.1l-1.8,2.1h0s1.9,0,1.9,0h0Z"/>
  <path class="cls-11" d="M264.3,38.8l-1.5,8h-1.8v-.5h1.2l1.3-6.9h-1.1v-.5h1.9,0Z"/>
  <path class="cls-11" d="M92.8,101.1v-.5l.7-.7c1.7-1.6,2.4-2.4,2.4-3.4,0-.7-.3-1.3-1.3-1.3s-1.1.3-1.4.6l-.3-.6c.4-.4,1.1-.7,1.8-.7,1.4,0,2,1,2,1.9s-.9,2.2-2.2,3.5l-.5.5h0s2.9,0,2.9,0v.7h-4.2Z"/>
  <path class="cls-11" d="M271.6,110.3v-.5l.7-.7c1.7-1.6,2.4-2.4,2.4-3.4,0-.7-.3-1.3-1.3-1.3s-1.1.3-1.4.6l-.3-.6c.4-.4,1.1-.7,1.8-.7,1.4,0,2,1,2,1.9s-.9,2.2-2.2,3.5l-.5.5h0s2.9,0,2.9,0v.7h-4.2Z"/>
  <path class="cls-11" d="M46.5,130.8v6.7h-.9v-6.7h.9Z"/>
  <path class="cls-11" d="M51.5,134.3h-2.6v2.4h2.9v.7h-3.8v-6.7h3.6v.7h-2.8v2.1h2.6v.7h0Z"/>
  <path class="cls-11" d="M56.4,134.3h-2.6v2.4h2.9v.7h-3.8v-6.7h3.6v.7h-2.8v2.1h2.6v.7h0Z"/>
  <path class="cls-11" d="M61.4,134.3h-2.6v2.4h2.9v.7h-3.8v-6.7h3.6v.7h-2.8v2.1h2.6v.7h0Z"/>
  <path class="cls-11" d="M67.6,137.5v-.6h-.1c-.3.4-.8.7-1.5.7-1,0-1.5-.7-1.5-1.4,0-1.2,1-1.8,2.9-1.8h0c0-.5-.1-1.2-1.1-1.2s-.9.1-1.3.4l-.2-.6c.4-.3,1-.4,1.6-.4,1.5,0,1.8,1,1.8,2v1.8c0,.4,0,.8,0,1.2h-.8,0ZM67.4,135c-.9,0-2,.1-2,1.1s.4.8.8.8c.6,0,1-.4,1.2-.8,0,0,0-.2,0-.3v-.8Z"/>
  <path class="cls-11" d="M69.7,134c0-.5,0-.9,0-1.3h.8v.8h0c.2-.4.8-.9,1.6-.9s1.7.4,1.7,2.1v2.9h-.9v-2.8c0-.8-.3-1.4-1.1-1.4s-1,.4-1.2.9c0,.1,0,.3,0,.4v2.9h-.9v-3.5h0Z"/>
  <path class="cls-11" d="M79.4,130.4v5.9c0,.4,0,.9,0,1.2h-.8v-.8h0c-.3.5-.8.9-1.6.9-1.2,0-2.1-1-2.1-2.5s1-2.6,2.2-2.6,1.2.4,1.5.7h0v-2.9h.9,0ZM78.6,134.6c0-.1,0-.3,0-.4-.1-.6-.6-1-1.3-1s-1.4.8-1.4,1.9.5,1.8,1.4,1.8,1.1-.4,1.3-1.1c0-.1,0-.2,0-.4v-.8h0Z"/>
  <path class="cls-11" d="M39.5,146.3h-2.6v2.4h2.9v.7h-3.8v-6.7h3.6v.7h-2.8v2.1h2.6v.7h0Z"/>
  <path class="cls-11" d="M44.8,148.2c0,.5,0,.9,0,1.3h-.8v-.8h0c-.2.4-.7.9-1.6.9s-1.7-.4-1.7-2.1v-2.8h.9v2.7c0,.9.3,1.6,1.1,1.6s1-.4,1.2-.8c0-.1,0-.3,0-.4v-3h.9v3.5h0Z"/>
  <path class="cls-11" d="M46.3,146.2c0-.6,0-1.1,0-1.5h.8v.9h0c.2-.6.8-1.1,1.3-1.1s.2,0,.2,0v.8c0,0-.2,0-.3,0-.6,0-1.1.5-1.2,1.1,0,.1,0,.3,0,.4v2.6h-.9v-3.3h0Z"/>
  <path class="cls-11" d="M53.9,147c0,1.8-1.2,2.6-2.4,2.6s-2.3-1-2.3-2.5,1.1-2.6,2.4-2.6,2.3,1,2.3,2.5h0ZM50,147.1c0,1.1.6,1.9,1.5,1.9s1.5-.8,1.5-1.9-.4-1.9-1.5-1.9-1.5,1-1.5,1.9h0Z"/>
  <path class="cls-11" d="M59.2,144.7c0,.3,0,.7,0,1.3v2.8c0,1.1-.2,1.8-.7,2.2-.5.4-1.2.6-1.8.6s-1.2-.1-1.6-.4l.2-.7c.3.2.8.4,1.4.4.9,0,1.6-.5,1.6-1.7v-.5h0c-.3.4-.8.8-1.5.8-1.2,0-2.1-1-2.1-2.4s1.1-2.6,2.2-2.6,1.3.4,1.5.8h0v-.7h.8,0ZM58.2,146.6c0-.1,0-.3,0-.4-.2-.5-.6-.9-1.2-.9s-1.4.7-1.4,1.8.5,1.7,1.4,1.7,1-.3,1.2-.9c0-.1,0-.3,0-.5v-.9h0Z"/>
  <path class="cls-11" d="M60.5,146.2c0-.6,0-1.1,0-1.5h.8v.9h0c.2-.6.8-1.1,1.3-1.1s.2,0,.2,0v.8c0,0-.2,0-.3,0-.6,0-1.1.5-1.2,1.1,0,.1,0,.3,0,.4v2.6h-.9v-3.3h0Z"/>
  <path class="cls-11" d="M66.4,149.5v-.6h-.1c-.3.4-.8.7-1.5.7-1,0-1.5-.7-1.5-1.4,0-1.2,1-1.8,2.9-1.8h0c0-.5-.1-1.2-1.1-1.2-.4,0-.9.1-1.3.4l-.2-.6c.4-.3,1-.4,1.6-.4,1.5,0,1.8,1,1.8,2v1.8c0,.4,0,.8,0,1.2h-.8,0ZM66.3,147c-.9,0-2,.1-2,1.1s.4.8.8.8c.6,0,1-.4,1.2-.8,0,0,0-.2,0-.3v-.8h0Z"/>
  <path class="cls-11" d="M68.6,146.2c0-.6,0-1.1,0-1.6h.8v.8h0c.3-.6.9-.9,1.7-.9,1.2,0,2.1,1,2.1,2.4s-1.1,2.6-2.2,2.6-1.2-.3-1.5-.8h0v2.6h-.9v-5.2h0ZM69.4,147.5c0,.1,0,.2,0,.4.2.6.7,1,1.3,1,.9,0,1.5-.8,1.5-1.9s-.5-1.8-1.4-1.8-1.2.4-1.3,1.1c0,.1,0,.2,0,.4v.8h0Z"/>
  <path class="cls-11" d="M74.2,142.4h.9v3h0c.2-.2.4-.5.6-.6.3-.1.6-.2.9-.2.7,0,1.7.4,1.7,2.1v2.9h-.9v-2.8c0-.8-.3-1.4-1.1-1.4s-1,.4-1.2.9c0,.1,0,.3,0,.4v2.9h-.9v-7.1h0Z"/>
  <path class="cls-11" d="M80.8,143.3c0,.3-.2.6-.6.6s-.5-.2-.5-.6.2-.6.6-.6.5.2.5.6ZM79.8,149.5v-4.8h.9v4.8h-.9Z"/>
  <path class="cls-11" d="M85.6,149.3c-.2.1-.7.3-1.4.3-1.5,0-2.4-1-2.4-2.5s1-2.6,2.6-2.6,1,.1,1.2.3l-.2.7c-.2-.1-.5-.2-1-.2-1.1,0-1.7.8-1.7,1.8s.7,1.8,1.7,1.8.8-.1,1.1-.2l.2.7h0Z"/>
  <path class="cls-11" d="M86.5,148.6c.3.2.7.3,1.2.3.6,0,.9-.3.9-.7s-.3-.6-.9-.9c-.9-.3-1.3-.8-1.3-1.4,0-.8.6-1.4,1.7-1.4s.9.1,1.2.3l-.2.6c-.2-.1-.5-.3-1-.3s-.8.3-.8.7.3.6.9.8c.8.3,1.3.7,1.3,1.4s-.7,1.5-1.8,1.5-1-.1-1.4-.3l.2-.7h0Z"/>
  <path class="cls-11" d="M49.6,160.6c.3.2.7.3,1.2.3.6,0,.9-.3.9-.7s-.3-.6-.9-.9c-.9-.3-1.3-.8-1.3-1.4,0-.8.6-1.4,1.7-1.4s.9.1,1.2.3l-.2.6c-.2-.1-.5-.3-1-.3s-.8.3-.8.7.3.6.9.8c.8.3,1.3.7,1.3,1.4s-.7,1.5-1.8,1.5-1-.1-1.4-.3l.2-.7h0Z"/>
  <path class="cls-11" d="M54.2,159.2c0,1.2.8,1.7,1.7,1.7s1-.1,1.3-.2l.2.6c-.3.1-.8.3-1.6.3-1.5,0-2.4-1-2.4-2.4s.9-2.6,2.3-2.6,2,1.4,2,2.3,0,.3,0,.4h-3.4,0ZM56.8,158.6c0-.6-.2-1.4-1.2-1.4s-1.3.8-1.3,1.4c0,0,2.6,0,2.6,0Z"/>
  <path class="cls-11" d="M61.4,161.5v-.6h-.1c-.3.4-.8.7-1.5.7-1,0-1.5-.7-1.5-1.4,0-1.2,1-1.8,2.9-1.8h0c0-.5-.1-1.2-1.1-1.2-.5,0-.9.1-1.3.4l-.2-.6c.4-.3,1-.4,1.6-.4,1.5,0,1.8,1,1.8,2v1.8c0,.4,0,.8,0,1.2h-.8,0ZM61.3,159c-1,0-2,.1-2,1.1s.4.8.8.8c.6,0,1-.4,1.2-.8,0,0,0-.2,0-.3v-.8h0Z"/>
  <path class="cls-11" d="M63.5,158.2c0-.6,0-1.1,0-1.5h.8v.9h0c.2-.6.8-1.1,1.3-1.1s.2,0,.2,0v.8c0,0-.2,0-.3,0-.6,0-1.1.5-1.2,1.1,0,.1,0,.3,0,.4v2.6h-.9v-3.3h0Z"/>
  <path class="cls-11" d="M70.2,161.3c-.2.1-.7.3-1.4.3-1.5,0-2.4-1-2.4-2.5s1-2.6,2.6-2.6,1,.1,1.2.3l-.2.7c-.2-.1-.5-.2-1-.2-1.1,0-1.7.8-1.7,1.8s.7,1.8,1.7,1.8.8-.1,1.1-.2l.2.7h0Z"/>
  <path class="cls-11" d="M71.2,154.4h.9v3h0c.2-.2.4-.5.6-.6.3-.1.6-.2.9-.2.7,0,1.7.4,1.7,2.1v2.9h-.9v-2.8c0-.8-.3-1.4-1.1-1.4s-1,.4-1.2.9c0,.1,0,.3,0,.4v2.9h-.9v-7.1h0Z"/>
  <text class="cls-14" transform="translate(79.9 31.4)"><tspan x="0" y="0">3</tspan></text>
  <g>
    <path class="cls-11" d="M630.5,132h0l-1.2.6v-.7c0,0,1.5-.8,1.5-.8h.7l-1.4,7.2h-.9l1.2-6.3Z"/>
    <path class="cls-11" d="M633.2,137.6c.2,0,.4,0,.6,0,.5,0,.9-.3,1.4-.7.5-.4,1-1.1,1.3-1.9h0c-.4.5-1,.7-1.5.7-1.1,0-1.6-.9-1.6-1.8,0-1.4,1.1-2.9,2.5-2.9s1.8,1,1.8,2.1c0,1.7-.9,3.4-1.8,4.2-.6.5-1.3.9-2,1-.3,0-.5,0-.7,0v-.8ZM634.2,133.8c0,.8.3,1.2,1,1.2s1-.3,1.3-.8c0,0,.1-.2.1-.3,0-.2,0-.5,0-.8,0-.8-.3-1.3-1-1.3s-1.5,1.1-1.5,2.1Z"/>
    <path class="cls-11" d="M642.4,131.7c-.1,0-.3,0-.5,0-1.2.2-2.3,1.1-2.8,2.6h0c.4-.5,1-.8,1.6-.8,1,0,1.6.8,1.6,1.9s-1,2.9-2.5,2.9-1.9-1-1.9-2.3.8-3.2,1.7-4c.7-.7,1.6-1,2.3-1.1.2,0,.4,0,.5,0v.8ZM641.4,135.5c0-.8-.4-1.2-1-1.2s-1,.3-1.4.9c0,0-.1.2-.1.3,0,.2,0,.4,0,.7,0,.8.4,1.4,1.1,1.4s1.5-1.2,1.5-2.2Z"/>
  </g>
</svg>